<?xml version="1.0" encoding="utf-8"?>
<!-- Generator: Adobe Illustrator 14.0.0, SVG Export Plug-In . SVG Version: 6.00 Build 43363)  -->
<!DOCTYPE svg PUBLIC "-//W3C//DTD SVG 1.1//EN" "http://www.w3.org/Graphics/SVG/1.1/DTD/svg11.dtd">
<svg version="1.1" id="Logo" xmlns="http://www.w3.org/2000/svg" xmlns:xlink="http://www.w3.org/1999/xlink" x="0px" y="0px"
	 width="852px" height="852px" viewBox="0 0 852 852" enable-background="new 0 0 852 852" xml:space="preserve">
<path fill="#FFFFFF" stroke="#000000" stroke-width="1.5444" stroke-linejoin="round" d="M428.899,823.666
	c-0.949-3.066-284.018-145.703-284.018-337.412c0-49.086,0.246-346.626,0.246-346.626l283.585,0.185l283.521-0.185
	c0,0,0.312,297.54,0.312,346.626C712.545,677.963,429.846,820.785,428.899,823.666z"/>
<path fill="#BE002F" d="M428.65,823.932c-0.188-3.084,0.077-205.783,0.063-397.502c0-0.516,283.799,0,283.799,0.121
	c0.02,22.073-0.218,50.222-0.218,60.918C712.294,677.135,430.218,819.199,428.65,823.932z"/>
<rect x="522.608" y="139.627" fill="#E4B838" width="46.381" height="112.717"/>
<rect x="568.989" y="139.627" fill="#BE002F" width="46.364" height="112.717"/>
<rect x="615.354" y="139.627" fill="#E4B838" width="47.518" height="112.717"/>
<rect x="662.871" y="139.627" fill="#BE002F" width="49.032" height="112.717"/>
<rect x="476.616" y="139.627" fill="#BE002F" width="45.993" height="112.717"/>
<rect x="428.713" y="139.627" fill="#E4B838" width="47.903" height="112.717"/>
<rect x="145.127" y="139.627" fill="#3A3F8E" width="283.585" height="286.802"/>
<line fill="none" stroke="#000000" stroke-width="1.1119" x1="144.754" y1="426.63" x2="712.479" y2="426.63"/>
<path fill="none" stroke="#000000" stroke-width="0.6177" d="M662.989,140.141v112.469 M615.354,140.391V252.86 M569.112,140
	v112.487 M522.732,140.391V252.86 M476.737,139.876v112.468 M428.713,252.609H712.03"/>
<polygon points="166.673,579.292 291.872,512.319 428.713,590.546 428.713,660.584 291.872,582.357 198.099,632.467 "/>
<line fill="none" stroke="#000000" stroke-width="1.1119" stroke-linejoin="bevel" x1="428.899" y1="139.627" x2="428.899" y2="823.477"/>
<path fill="#BE002F" d="M303.11,699.783c3.885,0.248,5.998-2.178,8.065-4.383c2.065-2.225,4.663-3.514,8.142-2.609
	c3.482,0.914,4.649,0.791,6.08-0.266c1.43-1.025,1.274-1.555,5.302-1.676c-5.302-6.004-8.8-4.182-13.322-3.27
	c-4.506,0.904-9.044-1.568-11.111-6.139l-3.591,0.5c-2.145-1.945-6.698-0.48-6.698-0.48s-8.113,3.137-8.832-3.127
	c-0.698-6.279,2.161-6.744,2.161-6.744c1.43-0.234,3.575-3.607,3.575-3.607c0.717-4.104,3.826-3.873,3.826-3.873
	c1.677-1.191,8.579,1.93,8.579,1.93s0,0.967,4.553,0.498c4.522-0.498,4.056-3.619,4.056-3.619c-0.466-4.82-5.968-3.373-5.968-3.373
	c3.808-5.039,15.978,0.963,15.978,0.963c5.257-6.979,13.369-3.855,13.369-3.855c6.217-6.979,14.581-2.893,14.581-2.893
	c-0.251-7.215,13.116-10.586,13.116-10.586c1.914-0.479,6.201-7.227,6.201-7.227c7.647,20.471-6.029,21.916-6.029,21.916
	c6.061-0.918,6.061-0.918,6.061-0.918s8.798-1.439,11.641-12.121c1.557,13.039,0.391,17.348-4.273,22.023
	c3.36,0.652,6.343-0.527,7.383-1.043c-3.512,6.652-7.505,8.348-11.252,9.004c8.143-0.783,12.402-2.754,13.833-4.045
	c-2.581,6.652-5.299,8.596-7.896,10.168c4.914-1.432,6.992-2.477,7.757-3.391c-2.843,9.25-7.619,10.943-10.461,11.734
	c4.789,0,8.922-1.441,9.824-2.363c-4.399,9.92-7.629,10.57-9.186,11.611c-1.539,1.059-6.452,0.936-9.295-1.041
	c5.038,3.514,6.978,5.488,9.046,6.775c-6.978,2.754-11.905-0.248-13.708-1.549c-0.388,3.512-0.125,5.486,0.404,6.246
	c-3.125-0.529-4.54-2.613-4.913-2.984c-0.402-0.402-0.402-0.402-0.402-0.402c-10.215,1.568-18.481,1.055-22.741-0.654
	c-4.257-1.678-6.468-0.51-8.517,0.389c-2.082,0.918-6.868,1.447-8.936,0.668c-2.067-0.795-3.871-0.141-5.814,1.289
	c-1.941,1.428-5.688,5.736-11.765-0.637c-1.68-1.975-2.317-1.568-3.874-1.709c-1.553-0.141-1.799-4.137-1.799-4.523L303.11,699.783z
	"/>
<path fill="none" stroke="#000000" stroke-width="0.2008" stroke-miterlimit="10" d="M332.733,685.254
	c3.233,0.51,3.374,2.471,3.884,4.939c0.529,2.49,2.724,4.43,6.204,5.348c3.498,0.916,6.08,4.568,6.08,4.568"/>
<path d="M348.511,665.822c-2.456-2.471-3.094-4.045-6.201-4.307c5.051-0.898,6.061-0.266,9.17,1.057
	C349.413,663.598,348.649,665.949,348.511,665.822z"/>
<path fill="none" stroke="#000000" stroke-width="0.2008" stroke-miterlimit="10" d="M310.631,701.945
	c0,1.291,1.43,2.064,1.679,2.346 M307.662,702.582c0.653,2.752,2.458,3,2.581,3.141 M303.267,703.111
	c1.426,2.986,2.189,2.875,4.146,3.918 M318.263,699.459c-0.249,1.689,0.389,4.307,0.389,4.307 M324.075,698.414
	c-0.247,2.205,0,5.227,0,5.227 M326.92,697.641c-0.513,2.596,0,4.941,0,4.941 M329.376,697.248c-0.25,2.988,0.529,4.43,0.529,4.43
	 M331.958,695.541c-0.391,2.363,0.529,4.441,1.166,5.486 M338.827,697.904c1.926,1.678,2.19,4.537,2.19,4.537 M342.059,698.17
	c3.234,1.551,3.607,2.857,4.509,4.412"/>
<path fill="none" stroke="#000000" stroke-width="0.4171" stroke-miterlimit="10" d="M350.84,653.172
	c1.806,0.65,3.094,2.607,3.094,2.607c-1.803-2.346-9.561-7.674-18.219,2.492c0.638-0.938,1.43-1.709,1.43-1.709
	c-3.635-1.293-8.406-1.434-10.984,1.951c-2.597,3.391-2.724,1.695-5.707,0.393c-2.954-1.305-7.615-2.98-12.65,0.529
	c4.771-0.393,6.339,1.041,6.183,3.652c-0.122,2.594-2.827,3.391-3.867,3.264c-1.028-0.141-3.625-0.313-5.177-0.529
	c-1.804-0.266-2.567-2.084-6.841-2.225 M355.801,667.902c0.402-7.693,3.387-9.242,9.448-10.16c6.063-0.918,6.063-0.918,6.063-0.918
	s8.813-1.428,11.641-12.107c1.554,13.025,0.389,17.326-4.257,22.006c3.355,0.65,6.325-0.512,7.365-1.041
	c-3.498,6.668-7.492,8.344-11.255,9c8.147-0.777,12.42-2.734,13.835-4.041c-2.581,6.648-5.299,8.611-7.878,10.164
	c4.911-1.428,6.977-2.471,7.738-3.389c-2.827,9.266-7.616,10.955-10.461,11.75c4.786,0,8.94-1.441,9.824-2.363
	c-4.382,9.916-7.629,10.572-9.168,11.611c-1.557,1.045-6.468,0.918-9.313-1.039c5.053,3.512,6.98,5.469,9.048,6.775
	c-6.965,2.738-11.891-0.264-13.696-1.568c-0.403,3.516-0.138,5.486,0.391,6.264c-3.11-0.529-4.538-2.613-4.913-2.982
	c-0.389-0.406-0.389-0.406-0.389-0.406c-11.595,1.77-19.023,0.82-22.752-0.652c-2.597-1.031-4.958-1.197-8.533,0.402
	c-2.054,0.891-6.84,1.416-8.922,0.656c-2.052-0.795-3.871-0.141-5.814,1.289c-1.941,1.445-5.688,5.734-11.766-0.652
	c-1.665-1.961-2.316-1.568-3.87-1.695c-1.553-0.127-1.817-3.656-1.817-4.041 M363.121,658.271c1.676-0.797,2.192-0.529,3.498-0.67
	c1.274-0.127,11.874-5.863,4.769-21.781c-4.646,5.631-3.994,7.061-10.071,8.615c-5.05,1.307-9.296,5.475-9.837,9.775"/>
<path fill="#FFFFFF" d="M305.736,681.723"/>
<path fill="none" stroke="#000000" stroke-width="0.4171" stroke-miterlimit="10" d="M305.736,681.723"/>
<path fill="#FFFFFF" d="M306.374,681.316c2.065,4.588,6.589,7.055,11.127,6.156c4.507-0.912,8.005-2.736,13.307,3.248
	c-4.009,0.129-3.888,0.656-5.302,1.695c-1.431,1.059-2.597,1.18-6.077,0.268c-3.498-0.922-6.079,0.383-8.142,2.607
	c-2.067,2.205-3.234,3.9-7.107,3.639"/>
<path fill="none" stroke="#000000" stroke-width="0.4171" stroke-miterlimit="10" d="M306.374,681.316
	c2.065,4.588,6.589,7.055,11.127,6.156c4.507-0.912,8.005-2.736,13.307,3.248c-4.009,0.129-3.888,0.656-5.302,1.695
	c-1.431,1.059-2.597,1.18-6.077,0.268c-3.498-0.922-6.079,0.383-8.142,2.607c-2.067,2.205-3.234,3.9-7.107,3.639"/>
<path fill="#3A3F8E" d="M316.335,692.416c-7.116-1.428-9.84-2.877-11.765-3.779c-1.943-0.912-4.012-1.439-8.797-0.789
	c-4.789,0.668-4.009,4.059-12.667,0.523c-1.822-0.74-4.183-0.957-9.686,2.617c-4.023,2.607-3.747,7.426,0.764,9.387
	c9.433,4.074,11.892,5.082,16.799,2.066c5.347-3.25,6.096-2.205,8.021-2.332c1.941-0.127,6.341-0.777,7.756-1.18
	c1.43-0.389,2.954-1.262,3.871-2.861C312.062,693.596,316.335,692.416,316.335,692.416z"/>
<path fill="none" stroke="#000000" stroke-width="0.4128" stroke-miterlimit="10" d="M316.335,692.416
	c-7.116-1.428-9.84-2.877-11.765-3.779c-1.943-0.912-4.012-1.439-8.797-0.789c-4.789,0.668-4.009,4.059-12.667,0.523
	c-1.822-0.74-4.183-0.957-9.686,2.617c-4.023,2.607-3.747,7.426,0.764,9.387c9.433,4.074,11.892,5.082,16.799,2.066
	c5.347-3.25,6.096-2.205,8.021-2.332c1.941-0.127,6.341-0.777,7.756-1.18c1.43-0.389,2.954-1.262,3.871-2.861
	C312.062,693.596,316.335,692.416,316.335,692.416z"/>
<path fill="none" stroke="#000000" stroke-width="0.2008" stroke-miterlimit="10" d="M342.696,674.947
	c0.765-1.184,0.389-4.695,0.389-4.695s-2.457-2.473-2.858-3c-2.443,0.916-7.619,1.572-9.049,0.795
	c-1.008,0.777-2.438,1.287-2.438,1.287c1.431,1.447-0.143,4.307-0.143,4.307c2.582,0.385,3.234,1.959,3.234,1.959 M383.543,652.906
	c-5.051,11.877-10.475,13.955-14.735,16.834c3.343,0.123,5.548-0.654,5.548-0.654c-2.827,5.469-8.266,11.471-8.266,11.471
	c6.714,1.166,14.673,0.248,14.673,0.248"/>
<path fill="#FFFFFF" d="M339.558,675.613c2.081,0,3.792-1.709,3.792-3.82c0-2.133-1.711-3.828-3.792-3.828
	c-2.1,0-3.792,1.695-3.792,3.828C335.766,673.904,337.458,675.613,339.558,675.613z"/>
<path fill="none" stroke="#000000" stroke-width="0.2008" stroke-miterlimit="10" d="M339.558,675.613
	c2.081,0,3.792-1.709,3.792-3.82c0-2.133-1.711-3.828-3.792-3.828c-2.1,0-3.792,1.695-3.792,3.828
	C335.766,673.904,337.458,675.613,339.558,675.613z"/>
<path fill="#FFFFFF" d="M339.558,671.793"/>
<path fill="none" stroke="#000000" stroke-width="0.1922" stroke-miterlimit="10" d="M339.558,671.793"/>
<path d="M346.318,675.396c-3.233-1.756-6.419-4.756-6.856-5.533c-0.264,4.162,1.93,8.33,1.93,8.33
	C342.183,674.947,346.318,675.396,346.318,675.396z"/>
<path fill="none" stroke="#000000" stroke-width="0.0199" stroke-miterlimit="10" d="M346.318,675.396
	c-3.233-1.756-6.419-4.756-6.856-5.533c-0.264,4.162,1.93,8.33,1.93,8.33C342.183,674.947,346.318,675.396,346.318,675.396z"/>
<path fill="none" stroke="#000000" stroke-width="0.2008" stroke-miterlimit="10" d="M373.455,641.822
	c-4.615,6.221-8.267,7.305-9.946,8.35c2.719-0.127,5.672,0.266,5.672,0.266c-2.052,3.646-7.349,7.955-7.349,7.955"/>
<path fill="#FFFFFF" d="M298.475,680.68c-0.122,1.961-0.513,4.574,0.265,7.045c-4.012-2.102-4.895-5.754-4.895-5.754"/>
<path fill="none" stroke="#000000" stroke-width="0.2008" stroke-miterlimit="10" d="M298.475,680.68
	c-0.122,1.961-0.513,4.574,0.265,7.045c-4.012-2.102-4.895-5.754-4.895-5.754"/>
<path fill="#FFFFFF" d="M304.444,699.582c-3.745-3.125-1.431-9.516-1.431-9.516c2.086,2.617,3.361,5.352,7.23,6.391
	c-1.664,1.555-1.928,1.836-2.317,2.084C307.54,698.809,304.444,699.582,304.444,699.582z"/>
<path fill="none" stroke="#000000" stroke-width="0.2008" stroke-miterlimit="10" d="M304.444,699.582
	c-3.745-3.125-1.431-9.516-1.431-9.516c2.086,2.617,3.361,5.352,7.23,6.391c-1.664,1.555-1.928,1.836-2.317,2.084
	C307.54,698.809,304.444,699.582,304.444,699.582z"/>
<path fill="#FFFFFF" d="M297.465,681.086c0.637,4.168,3.358,6.762,4.525,7.959c0.512-3.652-0.529-3.652,2.189-6.793"/>
<path fill="none" stroke="#000000" stroke-width="0.2008" stroke-miterlimit="10" d="M297.465,681.086
	c0.637,4.168,3.358,6.762,4.525,7.959c0.512-3.652-0.529-3.652,2.189-6.793"/>
<path fill="#FFFFFF" d="M301.336,681.258c0.764,5.098,3.607,8.502,5.037,9.527c-0.142-5.473,1.817-6.779,1.817-6.779"/>
<path fill="none" stroke="#000000" stroke-width="0.2008" stroke-miterlimit="10" d="M301.336,681.258
	c0.764,5.098,3.607,8.502,5.037,9.527c-0.142-5.473,1.817-6.779,1.817-6.779"/>
<path fill="none" stroke="#000000" stroke-width="0.4171" stroke-miterlimit="10" d="M293.453,666.162
	c1.793-2.996,7.105-3.557,9.295,0.654c0.949,1.822,0.828,3.529,4.012,5.348c2.969,1.695,3.623,7.041,0.391,8.736
	c-3.236,1.695-3.884,1.166-5.161,0.512c-2.597-1.307-4.027-0.779-7.119,0.389c-3.107,1.184-6.203-0.127-7.118-1.555
	c-0.902-1.43-1.539-7.043,1.179-8.471C293.038,669.598,293.453,666.162,293.453,666.162z"/>
<path fill="none" stroke="#000000" stroke-width="0.2008" stroke-miterlimit="10" d="M301.99,678.039
	c-0.918-0.094,1.444,0.824,2.967,0.123c0.637-0.295,1.073-2.002,0.917-2.391c-0.138-0.389-0.124-1.229-1.476-1.51
	c-1.586-0.307-1.879,1.662-1.879,1.662s0.046,0.777,1.6,0.842C303.388,677.836,301.99,678.039,301.99,678.039z M290.333,677.416
	c0.138,0.918-0.872-1.414-0.251-2.982c0.251-0.67,1.946-1.18,2.333-1.045c0.388,0.109,1.211,0.064,1.555,1.434
	c0.387,1.572-1.555,1.955-1.555,1.955s-0.778,0-0.902-1.566C290.471,675.988,290.333,677.416,290.333,677.416z"/>
<path fill="#FFFFFF" d="M330.808,690.721c-2.986,0.268-3.888,0.656-4.773,1.307c-0.918,0.656-1.833,1.447-2.718,1.293
	c-0.28-5.596,2.845-10.027,2.845-10.027C327.573,689.045,330.808,690.721,330.808,690.721z"/>
<path fill="none" stroke="#000000" stroke-width="0.2008" stroke-miterlimit="10" d="M330.808,690.721
	c-2.986,0.268-3.888,0.656-4.773,1.307c-0.918,0.656-1.833,1.447-2.718,1.293c-0.28-5.596,2.845-10.027,2.845-10.027
	C327.573,689.045,330.808,690.721,330.808,690.721z"/>
<path fill="#FFFFFF" d="M310.631,682.889c-1.413,0.529-1.989,2.531-1.275,3.531c0.638,0.912,0.511,0.523,2.068,1.305
	c0.249,0.123,2.441,0.912,4.771-0.527c0.997-0.609,3.094-1.805,3.623-5.227c0.793-5.146-0.389-9.494-7.756-10.15
	C318.651,678.193,310.631,682.889,310.631,682.889z"/>
<path fill="none" stroke="#000000" stroke-width="0.2008" stroke-miterlimit="10" d="M310.631,682.889
	c-1.413,0.529-1.989,2.531-1.275,3.531c0.638,0.912,0.511,0.523,2.068,1.305c0.249,0.123,2.441,0.912,4.771-0.527
	c0.997-0.609,3.094-1.805,3.623-5.227c0.793-5.146-0.389-9.494-7.756-10.15C318.651,678.193,310.631,682.889,310.631,682.889z"/>
<path fill="none" stroke="#000000" stroke-width="0.2008" stroke-miterlimit="10" d="M360.99,705.457
	c-2.283-2.221-3.822-7.693-3.822-7.693 M374.232,705.207c-7.613-4.18-12.399-9.916-12.399-9.916 M382.377,695.68
	c-10.088-0.918-17.701-6.141-19.504-7.43"/>
<path fill="#FFFFFF" d="M319.042,687.332c2.843-2.596,2.843-4.959,2.965-6.016c1.944,3.02,1.43,5.244,1.43,5.244
	C321.37,686.561,319.042,687.332,319.042,687.332z"/>
<path fill="none" stroke="#000000" stroke-width="0.2008" stroke-miterlimit="10" d="M319.042,687.332
	c2.843-2.596,2.843-4.959,2.965-6.016c1.944,3.02,1.43,5.244,1.43,5.244C321.37,686.561,319.042,687.332,319.042,687.332z"/>
<path fill="#BE002F" d="M188.354,500.925c3.884,0.262,6-2.161,8.068-4.366c2.067-2.224,4.659-3.53,8.142-2.612
	c3.48,0.904,4.646,0.777,6.077-0.262c1.431-1.042,1.293-1.557,5.302-1.695c-5.302-6-8.796-4.167-13.322-3.248
	c-4.522,0.898-9.044-1.572-11.112-6.14l-3.573,0.495c-2.161-1.944-6.716-0.495-6.716-0.495s-8.113,3.137-8.83-3.125
	c-0.698-6.265,2.161-6.746,2.161-6.746c1.431-0.234,3.578-3.606,3.578-3.606c0.711-4.104,3.821-3.855,3.821-3.855
	c1.676-1.195,8.594,1.929,8.594,1.929s0,0.963,4.54,0.482c4.538-0.482,4.057-3.607,4.057-3.607c-0.466-4.82-5.971-3.374-5.971-3.374
	c3.81-5.051,15.996,0.948,15.996,0.948c5.238-6.979,13.351-3.838,13.351-3.838c6.217-6.979,14.581-2.89,14.581-2.89
	c-0.249-7.214,13.134-10.586,13.134-10.586c1.896-0.497,6.188-7.241,6.188-7.241c7.645,20.466-6.032,21.915-6.032,21.915
	c6.061-0.919,6.061-0.919,6.061-0.919s8.796-1.444,11.641-12.123c1.555,13.042,0.389,17.349-4.276,22.024
	c3.361,0.651,6.344-0.51,7.384-1.039c-3.494,6.648-7.505,8.343-11.25,8.999c8.143-0.777,12.403-2.737,13.833-4.027
	c-2.583,6.639-5.302,8.581-7.881,10.151c4.911-1.414,6.979-2.472,7.739-3.39c-2.828,9.266-7.615,10.956-10.443,11.736
	c4.772,0,8.904-1.431,9.806-2.349c-4.396,9.917-7.629,10.572-9.187,11.612c-1.534,1.039-6.447,0.917-9.29-1.04
	c5.032,3.512,6.976,5.469,9.043,6.761c-6.98,2.766-11.905-0.252-13.692-1.541c-0.407,3.511-0.142,5.473,0.387,6.246
	c-3.108-0.529-4.538-2.608-4.913-2.996c-0.403-0.389-0.403-0.389-0.403-0.389c-10.197,1.568-18.481,1.04-22.723-0.656
	c-4.273-1.69-6.481-0.51-8.533,0.393c-2.084,0.913-6.87,1.428-8.938,0.652c-2.068-0.796-3.871-0.141-5.814,1.301
	c-1.941,1.433-5.688,5.74-11.765-0.65c-1.679-1.957-2.316-1.568-3.868-1.695c-1.555-0.136-1.804-4.135-1.804-4.538L188.354,500.925z
	"/>
<path fill="none" stroke="#000000" stroke-width="0.2008" stroke-miterlimit="10" d="M217.995,486.41
	c3.219,0.496,3.356,2.47,3.872,4.942c0.529,2.468,2.719,4.429,6.201,5.347c3.498,0.913,6.077,4.551,6.077,4.551"/>
<path d="M233.755,466.98c-2.454-2.488-3.091-4.057-6.202-4.305c5.051-0.918,6.062-0.262,9.17,1.042
	C234.657,464.74,233.897,467.106,233.755,466.98z"/>
<path fill="none" stroke="#000000" stroke-width="0.2008" stroke-miterlimit="10" d="M195.875,503.1c0,1.292,1.43,2.07,1.679,2.332
	 M192.906,503.737c0.655,2.739,2.458,3,2.583,3.145 M188.51,504.265c1.431,2.988,2.19,2.861,4.149,3.905 M203.506,500.613
	c-0.249,1.695,0.389,4.289,0.389,4.289 M209.321,499.556c-0.249,2.223,0,5.225,0,5.225 M212.165,498.796c-0.511,2.599,0,4.94,0,4.94
	 M214.639,498.395c-0.264,3.001,0.513,4.429,0.513,4.429 M217.22,496.699c-0.407,2.346,0.511,4.429,1.148,5.469 M224.074,499.045
	c1.925,1.695,2.19,4.556,2.19,4.556 M227.303,499.307c3.234,1.559,3.607,2.861,4.526,4.43"/>
<path fill="none" stroke="#000000" stroke-width="0.4171" stroke-miterlimit="10" d="M236.087,454.33
	c1.803,0.65,3.091,2.609,3.091,2.609c-1.8-2.346-9.557-7.694-18.214,2.47c0.637-0.916,1.43-1.693,1.43-1.693
	c-3.623-1.306-8.41-1.428-10.99,1.957c-2.596,3.377-2.721,1.682-5.704,0.389c-2.954-1.303-7.618-2.999-12.653,0.53
	c4.771-0.403,6.343,1.041,6.187,3.654c-0.108,2.596-2.832,3.387-3.871,3.247c-1.028-0.141-3.621-0.295-5.159-0.513
	c-1.821-0.28-2.581-2.083-6.84-2.24 M241.045,469.048c0.403-7.693,3.39-9.25,9.451-10.167c6.076-0.916,6.076-0.916,6.076-0.916
	s8.799-1.415,11.625-12.108c1.558,13.023,0.407,17.331-4.257,22.024c3.356,0.65,6.326-0.529,7.367-1.04
	c-3.496,6.665-7.494,8.343-11.252,8.997c8.142-0.775,12.416-2.735,13.83-4.039c-2.578,6.653-5.281,8.594-7.877,10.147
	c4.913-1.415,6.98-2.454,7.756-3.372c-2.843,9.247-7.634,10.942-10.477,11.736c4.789,0,8.938-1.431,9.824-2.362
	c-4.385,9.929-7.616,10.585-9.171,11.607c-1.557,1.057-6.465,0.917-9.313-1.022c5.056,3.512,6.981,5.455,9.064,6.775
	c-6.979,2.734-11.907-0.267-13.708-1.573c-0.407,3.516-0.125,5.473,0.387,6.25c-3.108-0.515-4.538-2.613-4.911-2.983
	c-0.387-0.389-0.387-0.389-0.387-0.389c-11.597,1.771-19.028,0.822-22.757-0.656c-2.596-1.026-4.942-1.21-8.533,0.393
	c-2.05,0.9-6.84,1.429-8.903,0.651c-2.068-0.796-3.89-0.123-5.831,1.288c-1.943,1.446-5.688,5.753-11.767-0.651
	c-1.661-1.962-2.316-1.555-3.871-1.682c-1.537-0.136-1.817-3.652-1.817-4.036 M248.365,459.409c1.679-0.792,2.195-0.529,3.498-0.65
	c1.289-0.142,11.892-5.859,4.771-21.776c-4.646,5.609-3.996,7.04-10.072,8.61c-5.05,1.291-9.292,5.456-9.837,9.776"/>
<path fill="#FFFFFF" d="M190.98,482.882"/>
<path fill="none" stroke="#000000" stroke-width="0.4171" stroke-miterlimit="10" d="M190.98,482.882"/>
<path fill="#FFFFFF" d="M191.618,482.476c2.081,4.572,6.589,7.041,11.129,6.14c4.506-0.917,8.004-2.734,13.306,3.248
	c-4.011,0.142-3.889,0.67-5.302,1.712c-1.43,1.04-2.58,1.179-6.079,0.244c-3.496-0.9-6.074,0.406-8.142,2.617
	c-2.068,2.206-3.234,3.914-7.105,3.647"/>
<path fill="none" stroke="#000000" stroke-width="0.4171" stroke-miterlimit="10" d="M191.618,482.476
	c2.081,4.572,6.589,7.041,11.129,6.14c4.506-0.917,8.004-2.734,13.306,3.248c-4.011,0.142-3.889,0.67-5.302,1.712
	c-1.43,1.04-2.58,1.179-6.079,0.244c-3.496-0.9-6.074,0.406-8.142,2.617c-2.068,2.206-3.234,3.914-7.105,3.647"/>
<path fill="#3A3F8E" d="M201.581,493.576c-7.118-1.449-9.837-2.893-11.767-3.776c-1.941-0.92-4.009-1.448-8.795-0.793
	c-4.786,0.667-3.993,4.041-12.668,0.51c-1.819-0.729-4.181-0.962-9.687,2.61c-4.022,2.628-3.745,7.429,0.764,9.39
	c9.451,4.085,11.892,5.098,16.805,2.083c5.345-3.25,6.09-2.206,8.021-2.351c1.941-0.122,6.338-0.777,7.751-1.166
	c1.43-0.402,2.958-1.257,3.871-2.856C197.306,494.755,201.581,493.576,201.581,493.576z"/>
<path fill="none" stroke="#000000" stroke-width="0.4128" stroke-miterlimit="10" d="M201.581,493.576
	c-7.118-1.449-9.837-2.893-11.767-3.776c-1.941-0.92-4.009-1.448-8.795-0.793c-4.786,0.667-3.993,4.041-12.668,0.51
	c-1.819-0.729-4.181-0.962-9.687,2.61c-4.022,2.628-3.745,7.429,0.764,9.39c9.451,4.085,11.892,5.098,16.805,2.083
	c5.345-3.25,6.09-2.206,8.021-2.351c1.941-0.122,6.338-0.777,7.751-1.166c1.43-0.402,2.958-1.257,3.871-2.856
	C197.306,494.755,201.581,493.576,201.581,493.576z"/>
<path fill="none" stroke="#000000" stroke-width="0.2008" stroke-miterlimit="10" d="M227.94,476.086
	c0.763-1.165,0.407-4.677,0.407-4.677s-2.471-2.486-2.861-2.999c-2.456,0.916-7.629,1.553-9.046,0.794
	c-1.025,0.759-2.455,1.288-2.455,1.288c1.429,1.446-0.126,4.307-0.126,4.307c2.581,0.386,3.218,1.959,3.218,1.959 M268.79,454.064
	c-5.035,11.875-10.475,13.958-14.737,16.816c3.36,0.126,5.55-0.637,5.55-0.637c-2.83,5.458-8.253,11.455-8.253,11.455
	c6.7,1.184,14.657,0.249,14.657,0.249"/>
<path fill="#FFFFFF" d="M224.803,476.772c2.082,0,3.792-1.725,3.792-3.84c0-2.113-1.71-3.821-3.792-3.821
	c-2.099,0-3.792,1.708-3.792,3.821C221.011,475.047,222.704,476.772,224.803,476.772z"/>
<path fill="none" stroke="#000000" stroke-width="0.2008" stroke-miterlimit="10" d="M224.803,476.772
	c2.082,0,3.792-1.725,3.792-3.84c0-2.113-1.71-3.821-3.792-3.821c-2.099,0-3.792,1.708-3.792,3.821
	C221.011,475.047,222.704,476.772,224.803,476.772z"/>
<path fill="#FFFFFF" d="M224.803,472.932"/>
<path fill="none" stroke="#000000" stroke-width="0.1922" stroke-miterlimit="10" d="M224.803,472.932"/>
<path d="M231.565,476.552c-3.218-1.753-6.422-4.771-6.854-5.545c-0.264,4.178,1.926,8.344,1.926,8.344
	C227.43,476.086,231.565,476.552,231.565,476.552z"/>
<path fill="none" stroke="#000000" stroke-width="0.0199" stroke-miterlimit="10" d="M231.565,476.552
	c-3.218-1.753-6.422-4.771-6.854-5.545c-0.264,4.178,1.926,8.344,1.926,8.344C227.43,476.086,231.565,476.552,231.565,476.552z"/>
<path fill="none" stroke="#000000" stroke-width="0.2008" stroke-miterlimit="10" d="M258.702,442.982
	c-4.615,6.199-8.269,7.304-9.948,8.348c2.718-0.143,5.672,0.262,5.672,0.262c-2.051,3.639-7.348,7.941-7.348,7.941"/>
<path fill="#FFFFFF" d="M183.725,481.839c-0.127,1.959-0.516,4.571,0.278,7.041c-4.025-2.097-4.914-5.751-4.914-5.751"/>
<path fill="none" stroke="#000000" stroke-width="0.2008" stroke-miterlimit="10" d="M183.725,481.839
	c-0.127,1.959-0.516,4.571,0.278,7.041c-4.025-2.097-4.914-5.751-4.914-5.751"/>
<path fill="#FFFFFF" d="M189.69,500.74c-3.747-3.128-1.429-9.528-1.429-9.528c2.082,2.608,3.356,5.347,7.227,6.4
	c-1.663,1.56-1.928,1.84-2.319,2.07C192.784,499.962,189.69,500.74,189.69,500.74z"/>
<path fill="none" stroke="#000000" stroke-width="0.2008" stroke-miterlimit="10" d="M189.69,500.74
	c-3.747-3.128-1.429-9.528-1.429-9.528c2.082,2.608,3.356,5.347,7.227,6.4c-1.663,1.56-1.928,1.84-2.319,2.07
	C192.784,499.962,189.69,500.74,189.69,500.74z"/>
<path fill="#FFFFFF" d="M182.713,482.227c0.651,4.183,3.357,6.78,4.522,7.959c0.511-3.654-0.513-3.654,2.19-6.792"/>
<path fill="none" stroke="#000000" stroke-width="0.2008" stroke-miterlimit="10" d="M182.713,482.227
	c0.651,4.183,3.357,6.78,4.522,7.959c0.511-3.654-0.513-3.654,2.19-6.792"/>
<path fill="#FFFFFF" d="M186.58,482.412c0.78,5.101,3.625,8.491,5.038,9.531c-0.138-5.474,1.817-6.791,1.817-6.791"/>
<path fill="none" stroke="#000000" stroke-width="0.2008" stroke-miterlimit="10" d="M186.58,482.412
	c0.78,5.101,3.625,8.491,5.038,9.531c-0.138-5.474,1.817-6.791,1.817-6.791"/>
<path fill="none" stroke="#000000" stroke-width="0.4171" stroke-miterlimit="10" d="M178.703,467.324
	c1.803-3.015,7.103-3.578,9.295,0.65c0.949,1.803,0.84,3.528,4.007,5.349c2.969,1.693,3.624,7.038,0.391,8.719
	c-3.234,1.693-3.885,1.179-5.16,0.529c-2.597-1.307-4.027-0.791-7.119,0.387c-3.092,1.183-6.203-0.124-7.103-1.568
	c-0.917-1.415-1.554-7.026,1.164-8.472C178.282,470.743,178.703,467.324,178.703,467.324z"/>
<path fill="none" stroke="#000000" stroke-width="0.2008" stroke-miterlimit="10" d="M187.236,479.183
	c-0.919-0.097,1.446,0.822,2.969,0.122c0.637-0.278,1.069-2.007,0.916-2.379c-0.14-0.386-0.122-1.225-1.478-1.505
	c-1.584-0.313-1.878,1.66-1.878,1.66s0.045,0.765,1.6,0.825C188.648,478.994,187.236,479.183,187.236,479.183z M175.595,478.575
	c0.122,0.918-0.891-1.431-0.265-3.001c0.265-0.653,1.942-1.182,2.328-1.04c0.392,0.122,1.214,0.076,1.558,1.43
	c0.389,1.568-1.558,1.959-1.558,1.959s-0.775,0-0.896-1.573C175.717,477.145,175.595,478.575,175.595,478.575z"/>
<path fill="#FFFFFF" d="M216.053,491.864c-2.972,0.264-3.889,0.67-4.775,1.319c-0.913,0.637-1.833,1.433-2.718,1.292
	c-0.265-5.595,2.845-10.041,2.845-10.041C212.819,490.186,216.053,491.864,216.053,491.864z"/>
<path fill="none" stroke="#000000" stroke-width="0.2008" stroke-miterlimit="10" d="M216.053,491.864
	c-2.972,0.264-3.889,0.67-4.775,1.319c-0.913,0.637-1.833,1.433-2.718,1.292c-0.265-5.595,2.845-10.041,2.845-10.041
	C212.819,490.186,216.053,491.864,216.053,491.864z"/>
<path fill="#FFFFFF" d="M195.875,484.044c-1.413,0.529-1.987,2.521-1.275,3.533c0.638,0.901,0.515,0.528,2.068,1.303
	c0.249,0.127,2.458,0.92,4.773-0.528c0.994-0.62,3.093-1.82,3.62-5.223c0.794-5.159-0.388-9.496-7.755-10.148
	C203.896,479.351,195.875,484.044,195.875,484.044z"/>
<path fill="none" stroke="#000000" stroke-width="0.2008" stroke-miterlimit="10" d="M195.875,484.044
	c-1.413,0.529-1.987,2.521-1.275,3.533c0.638,0.901,0.515,0.528,2.068,1.303c0.249,0.127,2.458,0.92,4.773-0.528
	c0.994-0.62,3.093-1.82,3.62-5.223c0.794-5.159-0.388-9.496-7.755-10.148C203.896,479.351,195.875,484.044,195.875,484.044z"/>
<path fill="none" stroke="#000000" stroke-width="0.2008" stroke-miterlimit="10" d="M246.238,506.616
	c-2.287-2.238-3.826-7.692-3.826-7.692 M259.482,506.353c-7.619-4.185-12.404-9.916-12.404-9.916 M267.624,496.821
	c-10.088-0.899-17.704-6.138-19.508-7.428"/>
<path fill="#FFFFFF" d="M204.286,488.478c2.843-2.597,2.843-4.963,2.968-6.002c1.946,3.015,1.43,5.222,1.43,5.222
	C206.618,487.698,204.286,488.478,204.286,488.478z"/>
<path fill="none" stroke="#000000" stroke-width="0.2008" stroke-miterlimit="10" d="M204.286,488.478
	c2.843-2.597,2.843-4.963,2.968-6.002c1.946,3.015,1.43,5.222,1.43,5.222C206.618,487.698,204.286,488.478,204.286,488.478z"/>
<path fill="#BE002F" d="M331.286,500.925c3.872,0.262,6.002-2.161,8.069-4.366c2.065-2.224,4.645-3.53,8.144-2.612
	c3.481,0.904,4.647,0.777,6.06-0.262c1.43-1.042,1.293-1.557,5.32-1.695c-5.32-6-8.813-4.167-13.322-3.248
	c-4.521,0.898-9.062-1.572-11.112-6.14l-3.591,0.495c-2.146-1.944-6.7-0.495-6.7-0.495s-8.115,3.137-8.829-3.125
	c-0.701-6.265,2.145-6.746,2.145-6.746c1.43-0.234,3.591-3.606,3.591-3.606c0.716-4.104,3.823-3.855,3.823-3.855
	c1.664-1.195,8.579,1.929,8.579,1.929s0,0.963,4.556,0.482c4.522-0.482,4.041-3.607,4.041-3.607
	c-0.465-4.82-5.952-3.374-5.952-3.374c3.807-5.051,15.977,0.948,15.977,0.948c5.257-6.979,13.37-3.838,13.37-3.838
	c6.217-6.979,14.581-2.89,14.581-2.89c-0.251-7.214,13.116-10.586,13.116-10.586c1.896-0.497,6.202-7.241,6.202-7.241
	c7.645,20.466-6.029,21.915-6.029,21.915c6.061-0.919,6.061-0.919,6.061-0.919s8.798-1.444,11.625-12.123
	c1.555,13.042,0.407,17.349-4.258,22.024c3.356,0.651,6.341-0.51,7.383-1.039c-3.512,6.648-7.509,8.343-11.268,8.999
	c8.142-0.777,12.415-2.737,13.846-4.027c-2.579,6.639-5.297,8.581-7.894,10.151c4.911-1.414,6.978-2.472,7.755-3.39
	c-2.845,9.266-7.618,10.956-10.461,11.736c4.773,0,8.922-1.431,9.808-2.349c-4.384,9.917-7.616,10.572-9.17,11.612
	c-1.539,1.039-6.452,0.917-9.295-1.04c5.038,3.512,6.979,5.469,9.046,6.761c-6.978,2.766-11.907-0.252-13.708-1.541
	c-0.389,3.511-0.125,5.473,0.402,6.246c-3.123-0.529-4.538-2.608-4.926-2.996c-0.387-0.389-0.387-0.389-0.387-0.389
	c-10.214,1.568-18.499,1.04-22.74-0.656c-4.26-1.69-6.482-0.51-8.536,0.393c-2.063,0.913-6.854,1.428-8.917,0.652
	c-2.068-0.796-3.874-0.141-5.814,1.301c-1.959,1.433-5.704,5.74-11.767-0.65c-1.678-1.957-2.315-1.568-3.871-1.695
	c-1.553-0.136-1.804-4.135-1.804-4.538L331.286,500.925z"/>
<path fill="none" stroke="#000000" stroke-width="0.2008" stroke-miterlimit="10" d="M360.913,486.41
	c3.234,0.496,3.374,2.47,3.884,4.942c0.516,2.468,2.723,4.429,6.204,5.347c3.496,0.913,6.061,4.551,6.061,4.551"/>
<path d="M376.689,466.98c-2.457-2.488-3.108-4.057-6.204-4.305c5.055-0.918,6.065-0.262,9.172,1.042
	C377.591,464.74,376.815,467.106,376.689,466.98z"/>
<path fill="none" stroke="#000000" stroke-width="0.2008" stroke-miterlimit="10" d="M338.812,503.1c0,1.292,1.43,2.07,1.677,2.332
	 M335.842,503.737c0.653,2.739,2.456,3,2.579,3.145 M331.442,504.265c1.431,2.988,2.192,2.861,4.151,3.905 M346.425,500.613
	c-0.23,1.695,0.407,4.289,0.407,4.289 M352.255,499.556c-0.249,2.223,0,5.225,0,5.225 M355.101,498.796c-0.513,2.599,0,4.94,0,4.94
	 M357.557,498.395c-0.251,3.001,0.529,4.429,0.529,4.429 M360.138,496.699c-0.391,2.346,0.529,4.429,1.167,5.469 M367.005,499.045
	c1.928,1.695,2.192,4.556,2.192,4.556 M370.222,499.307c3.233,1.559,3.625,2.861,4.526,4.43"/>
<path fill="none" stroke="#000000" stroke-width="0.4171" stroke-miterlimit="10" d="M379.021,454.33
	c1.804,0.65,3.092,2.609,3.092,2.609c-1.815-2.346-9.56-7.694-18.23,2.47c0.651-0.916,1.431-1.693,1.431-1.693
	c-3.622-1.306-8.409-1.428-10.974,1.957c-2.594,3.377-2.721,1.682-5.704,0.389c-2.969-1.303-7.634-2.999-12.668,0.53
	c4.786-0.403,6.343,1.041,6.201,3.654c-0.122,2.596-2.843,3.387-3.869,3.247c-1.025-0.141-3.623-0.295-5.174-0.513
	c-1.804-0.28-2.567-2.083-6.841-2.24 M383.979,469.048c0.387-7.693,3.374-9.25,9.451-10.167c6.064-0.916,6.064-0.916,6.064-0.916
	s8.811-1.415,11.641-12.108c1.554,13.023,0.389,17.331-4.26,22.024c3.358,0.65,6.328-0.529,7.367-1.04
	c-3.498,6.665-7.507,8.343-11.254,8.997c8.147-0.775,12.42-2.735,13.835-4.039c-2.581,6.653-5.299,8.594-7.896,10.147
	c4.914-1.415,6.995-2.454,7.757-3.372c-2.843,9.247-7.616,10.942-10.461,11.736c4.787,0,8.922-1.431,9.824-2.362
	c-4.4,9.929-7.629,10.585-9.17,11.607c-1.571,1.057-6.479,0.917-9.311-1.022c5.037,3.512,6.978,5.455,9.046,6.775
	c-6.979,2.734-11.891-0.267-13.708-1.573c-0.388,3.516-0.124,5.473,0.405,6.25c-3.11-0.515-4.54-2.613-4.913-2.983
	c-0.403-0.389-0.403-0.389-0.403-0.389c-11.582,1.771-19.01,0.822-22.741-0.656c-2.594-1.026-4.958-1.21-8.535,0.393
	c-2.05,0.9-6.836,1.429-8.918,0.651c-2.067-0.796-3.871-0.123-5.814,1.288c-1.941,1.446-5.688,5.753-11.766-0.651
	c-1.679-1.962-2.316-1.555-3.873-1.682c-1.552-0.136-1.815-3.652-1.815-4.036 M391.299,459.409c1.679-0.792,2.192-0.529,3.499-0.65
	c1.272-0.142,11.874-5.859,4.771-21.776c-4.648,5.609-4.009,7.04-10.087,8.61c-5.051,1.291-9.28,5.456-9.822,9.776"/>
<path fill="#FFFFFF" d="M333.917,482.882"/>
<path fill="none" stroke="#000000" stroke-width="0.4171" stroke-miterlimit="10" d="M333.917,482.882"/>
<path fill="#FFFFFF" d="M334.554,482.476c2.063,4.572,6.59,7.041,11.112,6.14c4.522-0.917,8.021-2.734,13.32,3.248
	c-4.025,0.142-3.885,0.67-5.299,1.712c-1.431,1.04-2.597,1.179-6.095,0.244c-3.48-0.9-6.061,0.406-8.129,2.617
	c-2.065,2.206-3.231,3.914-7.103,3.647"/>
<path fill="none" stroke="#000000" stroke-width="0.4171" stroke-miterlimit="10" d="M334.554,482.476
	c2.063,4.572,6.59,7.041,11.112,6.14c4.522-0.917,8.021-2.734,13.32,3.248c-4.025,0.142-3.885,0.67-5.299,1.712
	c-1.431,1.04-2.597,1.179-6.095,0.244c-3.48-0.9-6.061,0.406-8.129,2.617c-2.065,2.206-3.231,3.914-7.103,3.647"/>
<path fill="#3A3F8E" d="M344.5,493.576c-7.104-1.449-9.825-2.893-11.75-3.776c-1.942-0.92-4.027-1.448-8.799-0.793
	c-4.787,0.667-4.012,4.041-12.665,0.51c-1.821-0.729-4.183-0.962-9.686,2.61c-4.027,2.628-3.747,7.429,0.762,9.39
	c9.435,4.085,11.89,5.098,16.802,2.083c5.347-3.25,6.077-2.206,8.001-2.351c1.959-0.122,6.344-0.777,7.774-1.166
	c1.43-0.402,2.954-1.257,3.871-2.856C340.242,494.755,344.5,493.576,344.5,493.576z"/>
<path fill="none" stroke="#000000" stroke-width="0.4128" stroke-miterlimit="10" d="M344.5,493.576
	c-7.104-1.449-9.825-2.893-11.75-3.776c-1.942-0.92-4.027-1.448-8.799-0.793c-4.787,0.667-4.012,4.041-12.665,0.51
	c-1.821-0.729-4.183-0.962-9.686,2.61c-4.027,2.628-3.747,7.429,0.762,9.39c9.435,4.085,11.89,5.098,16.802,2.083
	c5.347-3.25,6.077-2.206,8.001-2.351c1.959-0.122,6.344-0.777,7.774-1.166c1.43-0.402,2.954-1.257,3.871-2.856
	C340.242,494.755,344.5,493.576,344.5,493.576z"/>
<path fill="none" stroke="#000000" stroke-width="0.2008" stroke-miterlimit="10" d="M370.876,476.086
	c0.762-1.165,0.389-4.677,0.389-4.677s-2.469-2.486-2.86-2.999c-2.441,0.916-7.617,1.553-9.047,0.794
	c-1.023,0.759-2.454,1.288-2.454,1.288c1.43,1.446-0.127,4.307-0.127,4.307c2.581,0.386,3.233,1.959,3.233,1.959 M411.724,454.064
	c-5.053,11.875-10.477,13.958-14.752,16.816c3.36,0.126,5.565-0.637,5.565-0.637c-2.843,5.458-8.266,11.455-8.266,11.455
	c6.711,1.184,14.654,0.249,14.654,0.249"/>
<path fill="#FFFFFF" d="M367.738,476.772c2.081,0,3.792-1.725,3.792-3.84c0-2.113-1.711-3.821-3.792-3.821
	c-2.102,0-3.794,1.708-3.794,3.821C363.944,475.047,365.636,476.772,367.738,476.772z"/>
<path fill="none" stroke="#000000" stroke-width="0.2008" stroke-miterlimit="10" d="M367.738,476.772
	c2.081,0,3.792-1.725,3.792-3.84c0-2.113-1.711-3.821-3.792-3.821c-2.102,0-3.794,1.708-3.794,3.821
	C363.944,475.047,365.636,476.772,367.738,476.772z"/>
<path fill="#FFFFFF" d="M367.738,472.932"/>
<path fill="none" stroke="#000000" stroke-width="0.1922" stroke-miterlimit="10" d="M367.738,472.932"/>
<path d="M374.497,476.552c-3.232-1.753-6.418-4.771-6.854-5.545c-0.278,4.178,1.927,8.344,1.927,8.344
	C370.364,476.086,374.497,476.552,374.497,476.552z"/>
<path fill="none" stroke="#000000" stroke-width="0.0199" stroke-miterlimit="10" d="M374.497,476.552
	c-3.232-1.753-6.418-4.771-6.854-5.545c-0.278,4.178,1.927,8.344,1.927,8.344C370.364,476.086,374.497,476.552,374.497,476.552z"/>
<path fill="none" stroke="#000000" stroke-width="0.2008" stroke-miterlimit="10" d="M401.636,442.982
	c-4.617,6.199-8.269,7.304-9.95,8.348c2.708-0.143,5.677,0.262,5.677,0.262c-2.052,3.639-7.354,7.941-7.354,7.941"/>
<path fill="#FFFFFF" d="M326.656,481.839c-0.123,1.959-0.514,4.571,0.264,7.041c-4.011-2.097-4.895-5.751-4.895-5.751"/>
<path fill="none" stroke="#000000" stroke-width="0.2008" stroke-miterlimit="10" d="M326.656,481.839
	c-0.123,1.959-0.514,4.571,0.264,7.041c-4.011-2.097-4.895-5.751-4.895-5.751"/>
<path fill="#FFFFFF" d="M332.608,500.74c-3.729-3.128-1.414-9.528-1.414-9.528c2.067,2.608,3.359,5.347,7.227,6.4
	c-1.677,1.56-1.926,1.821-2.314,2.07C335.715,499.962,332.608,500.74,332.608,500.74z"/>
<path fill="none" stroke="#000000" stroke-width="0.2008" stroke-miterlimit="10" d="M332.608,500.74
	c-3.729-3.128-1.414-9.528-1.414-9.528c2.067,2.608,3.359,5.347,7.227,6.4c-1.677,1.56-1.926,1.821-2.314,2.07
	C335.715,499.962,332.608,500.74,332.608,500.74z"/>
<path fill="#FFFFFF" d="M325.645,482.227c0.638,4.183,3.358,6.78,4.509,7.959c0.511-3.654-0.513-3.654,2.205-6.792"/>
<path fill="none" stroke="#000000" stroke-width="0.2008" stroke-miterlimit="10" d="M325.645,482.227
	c0.638,4.183,3.358,6.78,4.509,7.959c0.511-3.654-0.513-3.654,2.205-6.792"/>
<path fill="#FFFFFF" d="M329.517,482.412c0.762,5.101,3.607,8.491,5.037,9.531c-0.142-5.474,1.817-6.791,1.817-6.791"/>
<path fill="none" stroke="#000000" stroke-width="0.2008" stroke-miterlimit="10" d="M329.517,482.412
	c0.762,5.101,3.607,8.491,5.037,9.531c-0.142-5.474,1.817-6.791,1.817-6.791"/>
<path fill="none" stroke="#000000" stroke-width="0.4171" stroke-miterlimit="10" d="M321.621,467.324
	c1.801-3.015,7.119-3.578,9.309,0.65c0.936,1.803,0.828,3.528,4.011,5.349c2.969,1.693,3.623,7.038,0.389,8.719
	c-3.234,1.693-3.887,1.179-5.175,0.529c-2.581-1.307-4.012-0.791-7.104,0.387c-3.111,1.183-6.203-0.124-7.12-1.568
	c-0.899-1.415-1.537-7.026,1.182-8.472C321.213,470.743,321.621,467.324,321.621,467.324z"/>
<path fill="none" stroke="#000000" stroke-width="0.2008" stroke-miterlimit="10" d="M330.154,479.183
	c-0.902-0.097,1.446,0.822,2.982,0.122c0.625-0.278,1.074-2.007,0.918-2.379c-0.138-0.386-0.124-1.225-1.476-1.505
	c-1.587-0.313-1.88,1.66-1.88,1.66s0.045,0.765,1.597,0.825C331.566,478.994,330.154,479.183,330.154,479.183z M318.514,478.575
	c0.138,0.918-0.888-1.431-0.251-3.001c0.251-0.653,1.941-1.182,2.332-1.04c0.388,0.122,1.211,0.076,1.539,1.43
	c0.402,1.568-1.539,1.959-1.539,1.959s-0.777,0-0.92-1.573C318.651,477.145,318.514,478.575,318.514,478.575z"/>
<path fill="#FFFFFF" d="M358.985,491.864c-2.983,0.264-3.885,0.67-4.786,1.319c-0.901,0.637-1.817,1.433-2.72,1.292
	c-0.264-5.595,2.859-10.041,2.859-10.041C355.738,490.186,358.985,491.864,358.985,491.864z"/>
<path fill="none" stroke="#000000" stroke-width="0.2008" stroke-miterlimit="10" d="M358.985,491.864
	c-2.983,0.264-3.885,0.67-4.786,1.319c-0.901,0.637-1.817,1.433-2.72,1.292c-0.264-5.595,2.859-10.041,2.859-10.041
	C355.738,490.186,358.985,491.864,358.985,491.864z"/>
<path fill="#FFFFFF" d="M338.812,484.044c-1.415,0.529-2.004,2.521-1.293,3.533c0.655,0.901,0.528,0.528,2.068,1.303
	c0.264,0.127,2.458,0.92,4.775-0.528c0.995-0.62,3.107-1.82,3.636-5.223c0.775-5.159-0.407-9.496-7.756-10.148
	C346.832,479.351,338.812,484.044,338.812,484.044z"/>
<path fill="none" stroke="#000000" stroke-width="0.2008" stroke-miterlimit="10" d="M338.812,484.044
	c-1.415,0.529-2.004,2.521-1.293,3.533c0.655,0.901,0.528,0.528,2.068,1.303c0.264,0.127,2.458,0.92,4.775-0.528
	c0.995-0.62,3.107-1.82,3.636-5.223c0.775-5.159-0.407-9.496-7.756-10.148C346.832,479.351,338.812,484.044,338.812,484.044z"/>
<path fill="none" stroke="#000000" stroke-width="0.2008" stroke-miterlimit="10" d="M389.157,506.616
	c-2.269-2.238-3.811-7.692-3.811-7.692 M402.413,506.353c-7.616-4.185-12.404-9.916-12.404-9.916 M410.558,496.821
	c-10.088-0.899-17.718-6.138-19.505-7.428"/>
<path fill="#FFFFFF" d="M347.218,488.478c2.848-2.597,2.848-4.963,2.97-6.002c1.944,3.015,1.43,5.222,1.43,5.222
	C349.55,487.698,347.218,488.478,347.218,488.478z"/>
<path fill="none" stroke="#000000" stroke-width="0.2008" stroke-miterlimit="10" d="M347.218,488.478
	c2.848-2.597,2.848-4.963,2.97-6.002c1.944,3.015,1.43,5.222,1.43,5.222C349.55,487.698,347.218,488.478,347.218,488.478z"/>
<line fill="#FFFFFF" x1="514.403" y1="659.652" x2="529.385" y2="659.652"/>
<line fill="none" stroke="#000000" stroke-width="0.3495" stroke-miterlimit="10" x1="514.403" y1="659.652" x2="529.385" y2="659.652"/>
<line fill="#FFFFFF" x1="529.385" y1="659.652" x2="546.715" y2="659.652"/>
<line fill="none" stroke="#000000" stroke-width="0.3495" stroke-miterlimit="10" x1="529.385" y1="659.652" x2="546.715" y2="659.652"/>
<polygon fill="#FFFFFF" points="492.141,460.281 492.141,452.105 496.138,452.105 496.138,456.736 500.132,456.736 500.132,452.06 
	504.328,452.06 504.328,456.736 508.309,456.736 508.309,452.135 511.852,452.135 511.852,460.281 "/>
<polygon fill="none" stroke="#000000" stroke-width="0.4676" stroke-miterlimit="10" points="492.141,460.281 492.141,452.105 
	496.138,452.105 496.138,456.736 500.132,456.736 500.132,452.06 504.328,452.06 504.328,456.736 508.309,456.736 508.309,452.135 
	511.852,452.135 511.852,460.281 "/>
<polygon fill="#FFFFFF" points="521.24,460.033 521.24,451.841 525.25,451.841 525.25,456.505 529.228,456.505 529.228,451.812 
	533.441,451.812 533.441,456.505 537.42,456.505 537.42,451.888 540.947,451.888 540.947,460.033 "/>
<polygon fill="none" stroke="#000000" stroke-width="0.4676" stroke-miterlimit="10" points="521.24,460.033 521.24,451.841 
	525.25,451.841 525.25,456.505 529.228,456.505 529.228,451.812 533.441,451.812 533.441,456.505 537.42,456.505 537.42,451.888 
	540.947,451.888 540.947,460.033 "/>
<polygon fill="#FFFFFF" points="549.639,459.798 549.639,451.64 553.647,451.64 553.647,456.27 557.643,456.27 557.643,451.606 
	561.838,451.606 561.838,456.27 565.816,456.27 565.816,451.669 569.362,451.669 569.362,459.798 "/>
<polygon fill="none" stroke="#000000" stroke-width="0.4676" stroke-miterlimit="10" points="549.639,459.798 549.639,451.64 
	553.647,451.64 553.647,456.27 557.643,456.27 557.643,451.606 561.838,451.606 561.838,456.27 565.816,456.27 565.816,451.669 
	569.362,451.669 569.362,459.798 "/>
<line fill="none" stroke="#000000" stroke-width="0.2106" stroke-miterlimit="10" x1="497.024" y1="515.488" x2="564.979" y2="515.488"/>
<path fill="none" stroke="#000000" stroke-width="0.3447" stroke-miterlimit="10" d="M578.563,632.498v9.324 M561.171,632.498v9.324
	 M586.197,623.002v9.447"/>
<polygon fill="#FFFFFF" points="496.916,514.978 485.12,593.873 576.992,593.873 565.008,514.978 "/>
<polygon fill="none" stroke="#000000" stroke-width="0.6495" stroke-miterlimit="10" points="496.916,514.978 485.12,593.873 
	576.992,593.873 565.008,514.978 "/>
<path d="M540.452,537.485c0-5.103-4.104-9.248-9.187-9.248c-5.066,0-9.17,4.145-9.17,9.248v28.226h18.42L540.452,537.485z"/>
<path fill="none" stroke="#000000" stroke-width="0.3445" stroke-miterlimit="10" d="M540.452,537.485
	c0-5.103-4.104-9.248-9.187-9.248c-5.066,0-9.17,4.145-9.17,9.248v28.226h18.42L540.452,537.485z"/>
<path fill="none" stroke="#000000" stroke-width="0.3447" stroke-miterlimit="10" d="M560.098,565.77v9.451 M546.048,565.77v9.451
	 M515.955,565.77v9.451 M502.213,565.833v9.469 M564.248,556.463v9.185 M550.742,556.463v9.185 M511.387,556.463v9.185
	 M498.082,556.522v9.189 M557.16,547.09v9.311 M505.045,547.211v9.311 M561.514,538.028l-0.079,8.903 M551.936,537.761v9.329
	 M510.204,537.761v9.329 M500.891,537.761v9.329 M557.688,526.028v11.733 M545.52,526.028v11.733 M516.608,526.028v11.733
	 M504.378,526.028v11.733 M553.01,515.632v10.396 M539.099,515.488v10.4 M523.045,515.488v10.4 M509.071,515.632v10.396
	 M487.931,575.302h86.282 M539.566,565.711h33.184 M540.779,556.4h30.492 M490.871,556.522h30.897 M540.625,547.09h29.174
	 M492.204,547.09h29.704 M540.516,537.761h28.083 M493.542,537.761h28.366 M495.285,526.028h71.309"/>
<polygon fill="#FFFFFF" points="484.17,504.455 484.17,482.198 578.095,482.148 578.065,504.265 565.008,514.978 496.916,514.978 
	"/>
<polygon fill="none" stroke="#000000" stroke-width="0.6495" stroke-miterlimit="10" points="484.17,504.455 484.17,482.198 
	578.095,482.148 578.065,504.265 565.008,514.978 496.916,514.978 "/>
<path fill="none" stroke="#000000" stroke-width="0.3447" stroke-miterlimit="10" d="M560.098,584.653v9.188 M544.848,584.653v9.188
	 M531.064,584.549v9.153 M517.15,584.549v9.153 M502.213,584.735v9.17 M567.061,575.22v9.171 M553.132,575.22v9.171 M536.954,575.22
	v9.171 M525.313,575.22v9.171 M509.117,575.365v9.185 M495.145,575.423v9.185 M486.58,584.608h88.965"/>
<polygon fill="#FFFFFF" points="468.035,610.1 468.035,660.057 593.143,660.057 593.143,610.537 576.603,593.841 484.699,593.841 
	"/>
<polygon fill="none" stroke="#000000" stroke-width="0.6495" stroke-miterlimit="10" points="468.035,610.1 468.035,660.057 
	593.143,660.057 593.143,610.537 576.603,593.841 484.699,593.841 "/>
<path fill="none" stroke="#000000" stroke-width="0.3447" stroke-miterlimit="10" d="M561.216,491.99v11.453l-5.469,11.521
	 M544.848,492.144v11.485l-1.535,11.598 M530.938,492.144l0.064,22.942 M517.15,492.144v11.485l1.137,11.335 M499.822,492.144
	v11.485l4.148,11.335 M551.472,486.611h16.212 M522.838,486.611h16.213 M494.351,486.749h16.181 M551.472,482.306v9.713
	 M539.159,482.306v9.713 M522.838,482.43v9.713 M510.531,482.148v9.731 M494.351,482.43v9.713 M484.17,503.628h93.895
	 M484.435,492.144h93.66 M567.789,482.43v9.713 M578.563,651.273v8.783 M561.171,651.273v8.783 M499.886,651.273v8.783
	 M482.552,651.273v8.783 M586.053,641.945v9.328 M569.873,641.822v9.311 M553.68,641.822v9.311 M507.25,641.822v9.311
	 M491.181,641.945v9.328 M475.077,641.945v9.328 M499.759,632.498v9.324 M482.552,632.498v9.324 M570,623.002v9.447 M553.68,623.002
	v9.447 M507.377,623.002v9.447 M491.181,622.863v9.445 M474.938,623.062v9.437 M546.777,651.197h46.176 M546.777,641.746h46.176
	 M468.114,651.197h46.146 M468.005,641.746h46.133 M546.777,632.498h46.176 M468.005,632.498h46.133"/>
<path d="M514.34,659.979V623.73c7.52-10.645,25.629-10.708,32.393-0.031v36.342"/>
<path fill="none" stroke="#000000" stroke-width="0.3445" stroke-miterlimit="10" d="M514.34,659.979V623.73
	c7.52-10.645,25.629-10.708,32.393-0.031v36.342"/>
<path fill="none" stroke="#000000" stroke-width="0.3447" stroke-miterlimit="10" d="M468.114,623.062h46.567 M546.264,623.062
	h46.537 M468.035,610.1h124.918 M577.506,610.035v12.967 M561.171,610.18v12.945 M499.759,610.035v12.967 M483.483,610.117v12.944
	 M476.398,602.004h108.257"/>
<line fill="#FFFFFF" x1="521.768" y1="565.711" x2="489.25" y2="565.711"/>
<line fill="none" stroke="#000000" stroke-width="0.3447" stroke-miterlimit="10" x1="521.768" y1="565.711" x2="489.25" y2="565.711"/>
<polygon fill="#FFFFFF" points="492.141,481.061 494.457,467.027 492.141,460.281 511.852,460.281 509.52,467.027 511.852,481.061 
	"/>
<polygon fill="none" stroke="#000000" stroke-width="0.4676" stroke-miterlimit="10" points="492.141,481.061 494.457,467.027 
	492.141,460.281 511.852,460.281 509.52,467.027 511.852,481.061 "/>
<polygon fill="#FFFFFF" points="521.085,481.093 523.402,467.073 521.24,460.033 540.947,460.033 538.459,467.073 540.779,481.093 
	"/>
<polygon fill="none" stroke="#000000" stroke-width="0.4676" stroke-miterlimit="10" points="521.085,481.093 523.402,467.073 
	521.24,460.033 540.947,460.033 538.459,467.073 540.779,481.093 "/>
<polygon fill="#FFFFFF" points="549.576,480.969 551.873,466.935 549.639,459.798 569.362,459.798 566.982,466.935 569.283,480.969 
	"/>
<polygon fill="none" stroke="#000000" stroke-width="0.4676" stroke-miterlimit="10" points="549.576,480.969 551.873,466.935 
	549.639,459.798 569.362,459.798 566.982,466.935 569.283,480.969 "/>
<path fill="#FFFFFF" d="M492.141,481.061l7.044-0.016v-6.809c0.589-4.614,5.302-4.676,5.812,0v6.809l6.854,0.016l-2.332-14.034
	h-15.063L492.141,481.061z"/>
<path fill="none" stroke="#000000" stroke-width="0.2252" stroke-miterlimit="10" d="M492.141,481.061l7.044-0.016v-6.809
	c0.589-4.614,5.302-4.676,5.812,0v6.809l6.854,0.016l-2.332-14.034h-15.063L492.141,481.061z"/>
<path fill="#FFFFFF" d="M521.085,481.093l7.056-0.014v-6.792c0.592-4.618,5.285-4.697,5.797,0v6.792l6.842,0.014l-2.32-14.02
	h-15.057L521.085,481.093z"/>
<path fill="none" stroke="#000000" stroke-width="0.2252" stroke-miterlimit="10" d="M521.085,481.093l7.056-0.014v-6.792
	c0.592-4.618,5.285-4.697,5.797,0v6.792l6.842,0.014l-2.32-14.02h-15.057L521.085,481.093z"/>
<path fill="#FFFFFF" d="M549.576,480.969l7.072-0.033v-6.809c0.59-4.584,5.283-4.644,5.797,0v6.809l6.838,0.033l-2.301-14.034
	h-15.109L549.576,480.969z"/>
<path fill="none" stroke="#000000" stroke-width="0.2252" stroke-miterlimit="10" d="M549.576,480.969l7.072-0.033v-6.809
	c0.59-4.584,5.283-4.644,5.797,0v6.809l6.838,0.033l-2.301-14.034h-15.109L549.576,480.969z"/>
<path fill="#E4B838" d="M286.478,318.604h18.512c-4.212,7.854-8.019,15.404,0.138,26.393c8.176,10.975,34.041,40.506,0.685,69.369
	h-19.478"/>
<path fill="none" stroke="#000000" stroke-width="0.4064" stroke-miterlimit="10" d="M286.478,318.604h18.512
	c-4.212,7.854-8.019,15.404,0.138,26.393c8.176,10.975,34.041,40.506,0.685,69.369h-19.478"/>
<path fill="#E4B838" d="M286.478,318.604l-18.511-0.029c4.195,7.832,7.987,15.403-0.219,26.359
	c-8.208,10.974-34.149,40.429-0.873,69.355l19.46,0.077"/>
<path fill="none" stroke="#000000" stroke-width="0.4064" stroke-miterlimit="10" d="M286.478,318.604l-18.511-0.029
	c4.195,7.832,7.987,15.403-0.219,26.359c-8.208,10.974-34.149,40.429-0.873,69.355l19.46,0.077"/>
<path fill="#E4B838" d="M330.12,371.935c-4.424-6.685-4.475-11.223-0.804-19.428c3.607-8.084,20.362-26.626,13.288-41.144
	c-7.055-14.516-25.849-15.172-33.62-3.87c-3.483,7.134-1.013,13.041,0.092,14.858c1.398,2.269,4.852,4.37,8.829,3.591
	c3.993-0.762,4.882-4.834,4.414-6.793c-0.433-1.942-3.184-4.414-4.693-4.494c-1.492-0.061-3.433,0.937-3.996,1.185
	c-0.217-3.993,0.391-5.331,2.24-7.166c1.679-1.647,4.833-3.9,11.315-2.348c6.468,1.557,11.875,10.911,10.104,16.183
	c-1.74,5.268-2.567,11.004-18.573,17.779c4.178,3.654,5.874,2.642,8.049,2.612c-7.399,11.859-11.41,24.447,0.5,37.552
	c3.401,2.906,9.17,3.465,11.765-1.073c2.099-3.604,1.198-7.367-0.233-8.814c-1.787-1.817-5.207-2.316-6.481-1.414
	C331.04,370.037,330.12,371.935,330.12,371.935z"/>
<path fill="none" stroke="#000000" stroke-width="0.4064" stroke-miterlimit="10" d="M330.12,371.935
	c-4.424-6.685-4.475-11.223-0.804-19.428c3.607-8.084,20.362-26.626,13.288-41.144c-7.055-14.516-25.849-15.172-33.62-3.87
	c-3.483,7.134-1.013,13.041,0.092,14.858c1.398,2.269,4.852,4.37,8.829,3.591c3.993-0.762,4.882-4.834,4.414-6.793
	c-0.433-1.942-3.184-4.414-4.693-4.494c-1.492-0.061-3.433,0.937-3.996,1.185c-0.217-3.993,0.391-5.331,2.24-7.166
	c1.679-1.647,4.833-3.9,11.315-2.348c6.468,1.557,11.875,10.911,10.104,16.183c-1.74,5.268-2.567,11.004-18.573,17.779
	c4.178,3.654,5.874,2.642,8.049,2.612c-7.399,11.859-11.41,24.447,0.5,37.552c3.401,2.906,9.17,3.465,11.765-1.073
	c2.099-3.604,1.198-7.367-0.233-8.814c-1.787-1.817-5.207-2.316-6.481-1.414C331.04,370.037,330.12,371.935,330.12,371.935z"/>
<path fill="#E4B838" d="M242.35,371.855c4.508-6.634,4.619-11.175,1.028-19.413c-3.528-8.099-20.115-26.842-12.903-41.281
	c7.197-14.442,25.99-14.908,33.667-3.531c3.39,7.151,0.886,13.057-0.265,14.863c-1.396,2.253-4.865,4.318-8.859,3.51
	c-3.963-0.823-4.819-4.911-4.336-6.854c0.452-1.925,3.234-4.382,4.725-4.429c1.492-0.064,3.448,0.964,4.011,1.213
	c0.246-3.996-0.356-5.35-2.194-7.198c-1.662-1.663-4.787-3.947-11.268-2.438c-6.497,1.476-11.984,10.754-10.289,16.054
	c1.695,5.301,2.472,11.035,18.42,17.986c-4.228,3.604-5.907,2.563-8.1,2.517c7.291,11.95,11.175,24.556-0.854,37.55
	c-3.435,2.876-9.187,3.374-11.765-1.182c-2.038-3.636-1.107-7.383,0.339-8.813c1.821-1.799,5.24-2.27,6.499-1.352
	C241.463,369.977,242.35,371.855,242.35,371.855z"/>
<path fill="none" stroke="#000000" stroke-width="0.4064" stroke-miterlimit="10" d="M242.35,371.855
	c4.508-6.634,4.619-11.175,1.028-19.413c-3.528-8.099-20.115-26.842-12.903-41.281c7.197-14.442,25.99-14.908,33.667-3.531
	c3.39,7.151,0.886,13.057-0.265,14.863c-1.396,2.253-4.865,4.318-8.859,3.51c-3.963-0.823-4.819-4.911-4.336-6.854
	c0.452-1.925,3.234-4.382,4.725-4.429c1.492-0.064,3.448,0.964,4.011,1.213c0.246-3.996-0.356-5.35-2.194-7.198
	c-1.662-1.663-4.787-3.947-11.268-2.438c-6.497,1.476-11.984,10.754-10.289,16.054c1.695,5.301,2.472,11.035,18.42,17.986
	c-4.228,3.604-5.907,2.563-8.1,2.517c7.291,11.95,11.175,24.556-0.854,37.55c-3.435,2.876-9.187,3.374-11.765-1.182
	c-2.038-3.636-1.107-7.383,0.339-8.813c1.821-1.799,5.24-2.27,6.499-1.352C241.463,369.977,242.35,371.855,242.35,371.855z"/>
<path fill="#FFFFFF" d="M271.092,363.388c-1.091-5.333-2.585-8.224,3.263-14.145c1.103,9.354,2.314,12.65,8.98,14.563
	c6.688,1.925,24.248,10.866,27.231,17.455c3.001,6.59,0.701,11.937-5.439,9.605c-6.124-2.348-10.754-6.87-14.842-11.813
	c-4.089-4.945-12.793-10.443-14.706-11.254c-1.909-0.838-7.912-1.102-11.562,0.812c1.353-5.35,3.528-7.417,6.527-8.102
	C270.686,361.894,271.092,363.388,271.092,363.388z"/>
<path fill="none" stroke="#000000" stroke-width="0.4064" stroke-miterlimit="10" d="M271.092,363.388
	c-1.091-5.333-2.585-8.224,3.263-14.145c1.103,9.354,2.314,12.65,8.98,14.563c6.688,1.925,24.248,10.866,27.231,17.455
	c3.001,6.59,0.701,11.937-5.439,9.605c-6.124-2.348-10.754-6.87-14.842-11.813c-4.089-4.945-12.793-10.443-14.706-11.254
	c-1.909-0.838-7.912-1.102-11.562,0.812c1.353-5.35,3.528-7.417,6.527-8.102C270.686,361.894,271.092,363.388,271.092,363.388z"/>
<path fill="#FFFFFF" d="M269.8,397.474c1.351,4.506,4.772,7.538,7.631,7.956c-2.192-5.082-2.333-7.834-1.087-12.494
	c1.211-4.664,4.337-11.132,8.703-14.287c4.369-3.173,11.842-8.798,15.53-12.762c3.666-3.994,3.527-7.29-2.862-7.71
	c-6.403-0.402-15.53,1.369-21.791,15.109c-6.262,13.743-4.091,14.986-7.477,20.189c-1.882,2.862-6.139,5.768-7.507,6.188
	c4.367,1.494,9.809,0.265,9.809,0.265C270.344,398.698,269.8,397.474,269.8,397.474z"/>
<path fill="none" stroke="#000000" stroke-width="0.4064" stroke-miterlimit="10" d="M269.8,397.474
	c1.351,4.506,4.772,7.538,7.631,7.956c-2.192-5.082-2.333-7.834-1.087-12.494c1.211-4.664,4.337-11.132,8.703-14.287
	c4.369-3.173,11.842-8.798,15.53-12.762c3.666-3.994,3.527-7.29-2.862-7.71c-6.403-0.402-15.53,1.369-21.791,15.109
	c-6.262,13.743-4.091,14.986-7.477,20.189c-1.882,2.862-6.139,5.768-7.507,6.188c4.367,1.494,9.809,0.265,9.809,0.265
	C270.344,398.698,269.8,397.474,269.8,397.474z"/>
<path fill="#FFFFFF" d="M293.625,382.766c-8.158,3.562-8.703,3.154-14.84,0c-6.14-3.155-8.985-5.222-14.829-5.08
	c-5.876,0.122-5.053,4.118-4.493,5.765c0.545,1.647,4.878,8.237,15.371,10.852c10.493,2.608,15.248-1.246,17.302-2.057
	c2.034-0.839,6.325-4.273,6.746-4.675C296.005,385.239,293.625,382.766,293.625,382.766z"/>
<path fill="none" stroke="#000000" stroke-width="0.4064" stroke-miterlimit="10" d="M293.625,382.766
	c-8.158,3.562-8.703,3.154-14.84,0c-6.14-3.155-8.985-5.222-14.829-5.08c-5.876,0.122-5.053,4.118-4.493,5.765
	c0.545,1.647,4.878,8.237,15.371,10.852c10.493,2.608,15.248-1.246,17.302-2.057c2.034-0.839,6.325-4.273,6.746-4.675
	C296.005,385.239,293.625,382.766,293.625,382.766z"/>
<path fill="#FFFFFF" d="M304.041,374.529c1.912-3.17,2.316-4.678,1.772-9.2c3.406,3.281,3.824,5.223,3.824,8.239
	c3.792,0.138,6.526,2.206,7.74,4.66c-3.808-0.542-4.757-0.264-8.021,0.965C307.323,376.861,304.041,374.529,304.041,374.529z"/>
<path fill="none" stroke="#000000" stroke-width="0.4064" stroke-miterlimit="10" d="M304.041,374.529
	c1.912-3.17,2.316-4.678,1.772-9.2c3.406,3.281,3.824,5.223,3.824,8.239c3.792,0.138,6.526,2.206,7.74,4.66
	c-3.808-0.542-4.757-0.264-8.021,0.965C307.323,376.861,304.041,374.529,304.041,374.529z"/>
<path d="M295.601,361.193c0.293,0,0.528-0.23,0.528-0.528c0-0.294-0.234-0.529-0.528-0.529c-0.296,0-0.527,0.235-0.527,0.529
	C295.074,360.963,295.305,361.193,295.601,361.193z"/>
<path fill="none" stroke="#000000" stroke-width="0.009" stroke-miterlimit="10" d="M295.601,361.193
	c0.293,0,0.528-0.23,0.528-0.528c0-0.294-0.234-0.529-0.528-0.529c-0.296,0-0.527,0.235-0.527,0.529
	C295.074,360.963,295.305,361.193,295.601,361.193z"/>
<path d="M295.601,360.665"/>
<path fill="none" stroke="#000000" stroke-width="0.009" stroke-miterlimit="10" d="M295.601,360.665"/>
<path d="M306.902,383.857c0.294,0,0.529-0.235,0.529-0.529c0-0.298-0.235-0.544-0.529-0.544c-0.299,0-0.529,0.247-0.529,0.544
	C306.374,383.623,306.604,383.857,306.902,383.857z"/>
<path fill="none" stroke="#000000" stroke-width="0.009" stroke-miterlimit="10" d="M306.902,383.857
	c0.294,0,0.529-0.235,0.529-0.529c0-0.298-0.235-0.544-0.529-0.544c-0.299,0-0.529,0.247-0.529,0.544
	C306.374,383.623,306.604,383.857,306.902,383.857z"/>
<path d="M306.902,383.329"/>
<path fill="none" stroke="#000000" stroke-width="0.009" stroke-miterlimit="10" d="M306.902,383.329"/>
<path d="M265.651,380.56c0.294,0,0.529-0.217,0.529-0.529c0-0.28-0.235-0.529-0.529-0.529c-0.296,0-0.529,0.249-0.529,0.529
	C265.122,380.343,265.354,380.56,265.651,380.56z"/>
<path fill="none" stroke="#000000" stroke-width="0.009" stroke-miterlimit="10" d="M265.651,380.56
	c0.294,0,0.529-0.217,0.529-0.529c0-0.28-0.235-0.529-0.529-0.529c-0.296,0-0.529,0.249-0.529,0.529
	C265.122,380.343,265.354,380.56,265.651,380.56z"/>
<path d="M265.651,380.031"/>
<path fill="none" stroke="#000000" stroke-width="0.009" stroke-miterlimit="10" d="M265.651,380.031"/>
<path fill="none" stroke="#000000" stroke-width="0.2024" stroke-miterlimit="10" d="M259.106,380.296
	c3.001,0.126,4.368,0.809,5.178,2.597 M310.304,390.46c-2.314-2.189-4.072-4.275-6.263-4.958 M302.954,361.071
	c-3.826,0.278-5.037,1.351-5.439,1.769"/>
<path fill="#FFFFFF" d="M276.81,265.479c-1.086-0.14-2.409,1.026-2.409,1.026c-2.47-4.942-3.948-13.661,2.502-18.511
	c6.949,6.45,7.537,11.72,4.538,17.765c-1.211-0.42-1.367-0.558-2.052-0.42L276.81,265.479z"/>
<path fill="none" stroke="#000000" stroke-width="0.3239" stroke-miterlimit="10" d="M276.81,265.479
	c-1.086-0.14-2.409,1.026-2.409,1.026c-2.47-4.942-3.948-13.661,2.502-18.511c6.949,6.45,7.537,11.72,4.538,17.765
	c-1.211-0.42-1.367-0.558-2.052-0.42L276.81,265.479z"/>
<path fill="#87BE3C" d="M259.062,257.877c4.008-1.023,8.034,2.022,8.034,2.022c-2.983-8.517-9.76-24.216-9.885-25.878
	C255.983,247.622,259.062,257.877,259.062,257.877z"/>
<path fill="none" stroke="#000000" stroke-width="0.3239" stroke-miterlimit="10" d="M259.062,257.877
	c4.008-1.023,8.034,2.022,8.034,2.022c-2.983-8.517-9.76-24.216-9.885-25.878C255.983,247.622,259.062,257.877,259.062,257.877z"/>
<path fill="#87BE3C" d="M299.784,276.657c8.858-11.535,13.243-16.942,25.223-24.497c-3.402,20.174-8.579,25.941-12.665,29.656
	c-4.088,3.7-11.984,13.056-12.793,21.292h-2.454h-1.494l-5.038,0.127c0.264-10.571,3.125-17.162,4.074-18.402L299.784,276.657z"/>
<path fill="none" stroke="#000000" stroke-width="0.3239" stroke-miterlimit="10" d="M299.784,276.657
	c8.858-11.535,13.243-16.942,25.223-24.497c-3.402,20.174-8.579,25.941-12.665,29.656c-4.088,3.7-11.984,13.056-12.793,21.292
	h-2.454h-1.494l-5.038,0.127c0.264-10.571,3.125-17.162,4.074-18.402L299.784,276.657z"/>
<path fill="#87BE3C" d="M300.357,236.492c-0.809,3.292-6.621,14.875-9.623,20.362l-6.044,22.335l-2.844,17.72
	c0,0,0.138,3.043-0.406,6.198l5.844,0.127c0.28-2.052-0.434-11.162,4.463-20.488C291.748,282.747,303.468,253.653,300.357,236.492z"
	/>
<path fill="none" stroke="#000000" stroke-width="0.3239" stroke-miterlimit="10" d="M300.357,236.492
	c-0.809,3.292-6.621,14.875-9.623,20.362l-6.044,22.335l-2.844,17.72c0,0,0.138,3.043-0.406,6.198l5.844,0.127
	c0.28-2.052-0.434-11.162,4.463-20.488C291.748,282.747,303.468,253.653,300.357,236.492z"/>
<path fill="none" stroke="#000000" stroke-width="0.2024" stroke-miterlimit="10" d="M272.988,379.751
	c0.558,2.597,0.275,5.209-2.585,6.169 M303.076,376.985c-2.579,0-5.439,2.068-4.91,4.958 M287.163,360.245
	c0.682,3.839,0.809,4.54,3.527,6.452"/>
<polygon fill="#FFFFFF" points="306.075,143.092 314.114,146.81 306.075,148.315 310.446,152.841 303.219,151.89 307.862,158.606 
	300.778,155.467 302.83,162.321 296.688,157.5 297.232,164.109 292.195,160.954 290.023,169.469 287.284,163.424 284.846,167.823 
	282.794,162.741 276.67,168.366 276.948,161.232 271.633,163.982 271.092,157.5 266.336,160.954 266.336,156.57 261.158,159.586 
	262.647,153.801 255.283,155.467 260.055,148.861 252.982,148.458 261.825,143.234 231.331,143.777 238.683,151.347 
	227.787,155.187 236.367,158.886 222.89,163.003 233.646,166.859 221.663,172.904 231.331,174.691 217.437,185.808 233.226,184.158 
	220.449,196.812 232.295,194.883 221.803,209.449 236.505,203.803 229.141,219.177 242.77,210.535 242.63,222.067 250.123,216.161 
	249.718,225.502 257.07,219.315 258.702,226.467 265.651,221.945 267.423,231.41 274.914,223.855 279.529,232.512 284.846,224.135 
	291.919,231.563 295.056,223.17 301.865,230.461 304.179,219.877 311.532,229.482 312.884,217.263 323.782,227.415 319.693,210.535 
	331.537,220.158 325.971,202.28 336.588,209.306 331.413,198.86 341.903,204.225 331.815,188.014 344.625,194.323 338.624,183.476 
	353.329,185.543 333.324,174.414 347.89,174.536 333.451,166.441 345.557,165.77 330.728,159.024 345.166,157.254 327.591,150.927 
	339.168,143.777 "/>
<polygon fill="none" stroke="#000000" stroke-width="0.4064" stroke-miterlimit="10" points="306.075,143.092 314.114,146.81 
	306.075,148.315 310.446,152.841 303.219,151.89 307.862,158.606 300.778,155.467 302.83,162.321 296.688,157.5 297.232,164.109 
	292.195,160.954 290.023,169.469 287.284,163.424 284.846,167.823 282.794,162.741 276.67,168.366 276.948,161.232 271.633,163.982 
	271.092,157.5 266.336,160.954 266.336,156.57 261.158,159.586 262.647,153.801 255.283,155.467 260.055,148.861 252.982,148.458 
	261.825,143.234 231.331,143.777 238.683,151.347 227.787,155.187 236.367,158.886 222.89,163.003 233.646,166.859 221.663,172.904 
	231.331,174.691 217.437,185.808 233.226,184.158 220.449,196.812 232.295,194.883 221.803,209.449 236.505,203.803 
	229.141,219.177 242.77,210.535 242.63,222.067 250.123,216.161 249.718,225.502 257.07,219.315 258.702,226.467 265.651,221.945 
	267.423,231.41 274.914,223.855 279.529,232.512 284.846,224.135 291.919,231.563 295.056,223.17 301.865,230.461 304.179,219.877 
	311.532,229.482 312.884,217.263 323.782,227.415 319.693,210.535 331.537,220.158 325.971,202.28 336.588,209.306 331.413,198.86 
	341.903,204.225 331.815,188.014 344.625,194.323 338.624,183.476 353.329,185.543 333.324,174.414 347.89,174.536 333.451,166.441 
	345.557,165.77 330.728,159.024 345.166,157.254 327.591,150.927 339.168,143.777 "/>
<path fill="#FFFFFF" d="M258.498,151.13"/>
<path fill="none" stroke="#FFFFFF" stroke-width="0.4393" stroke-miterlimit="10" d="M258.498,151.13"/>
<path fill="#FFFFFF" d="M271.431,161.978"/>
<path fill="none" stroke="#FFFFFF" stroke-width="0.4393" stroke-miterlimit="10" d="M271.431,161.978"/>
<path fill="#FFFFFF" d="M308.735,151.067"/>
<path fill="none" stroke="#FFFFFF" stroke-width="0.4393" stroke-miterlimit="10" d="M308.735,151.067"/>
<path fill="#FFFFFF" d="M293.969,162.133"/>
<path fill="none" stroke="#FFFFFF" stroke-width="0.4393" stroke-miterlimit="10" d="M293.969,162.133"/>
<path fill="#FFFFFF" d="M297.031,162.041"/>
<path fill="none" stroke="#FFFFFF" stroke-width="0.4393" stroke-miterlimit="10" d="M297.031,162.041"/>
<path fill="#FFFFFF" d="M271.741,269.287"/>
<path fill="none" stroke="#000000" stroke-width="0.3239" d="M271.741,269.287"/>
<path fill="#FFFFFF" d="M271.775,269.597c0,0-0.407,2.596-0.683,3.424c-0.546-0.265-2.707-0.856-4.756-0.172
	c-3.205-2.208-7.555-6.158-9.964-15.217c13.738-0.547,17.641,9.093,17.438,8.673L271.775,269.597z"/>
<path fill="none" stroke="#000000" stroke-width="0.3239" d="M271.775,269.597c0,0-0.407,2.596-0.683,3.424
	c-0.546-0.265-2.707-0.856-4.756-0.172c-3.205-2.208-7.555-6.158-9.964-15.217c13.738-0.547,17.641,9.093,17.438,8.673
	L271.775,269.597z"/>
<path fill="#FFFFFF" d="M278.037,279.14c3.919,0,7.074-3.184,7.074-7.132c0-3.934-3.155-7.134-7.074-7.134
	c-3.916,0-7.071,3.2-7.071,7.134C270.966,275.956,274.121,279.14,278.037,279.14z"/>
<path fill="none" stroke="#000000" stroke-width="0.3239" stroke-miterlimit="10" d="M278.037,279.14
	c3.919,0,7.074-3.184,7.074-7.132c0-3.934-3.155-7.134-7.074-7.134c-3.916,0-7.071,3.2-7.071,7.134
	C270.966,275.956,274.121,279.14,278.037,279.14z"/>
<path fill="#FFFFFF" d="M278.037,272.008"/>
<path fill="none" stroke="#000000" stroke-width="0.3239" stroke-miterlimit="10" d="M278.037,272.008"/>
<path fill="#BE002F" d="M277.928,275.083c1.708,0,3.11-1.396,3.11-3.121c0-1.711-1.401-3.125-3.11-3.125
	c-1.694,0-3.094,1.414-3.094,3.125C274.834,273.687,276.234,275.083,277.928,275.083z"/>
<path fill="#BE0027" d="M277.928,271.963"/>
<path fill="#FFFFFF" d="M287.456,271.325c3.948-2.067,10.863-4.153,13.587-14.471c-7.619-1.368-13.479,0.652-16.604,5.192
	c0,0-2.049,2.328-2.999,3.713c0,0,1.354,0.545,1.896,1.632l1.23,2.348"/>
<path fill="none" stroke="#000000" stroke-width="0.3239" stroke-miterlimit="10" d="M287.456,271.325
	c3.948-2.067,10.863-4.153,13.587-14.471c-7.619-1.368-13.479,0.652-16.604,5.192c0,0-2.049,2.328-2.999,3.713
	c0,0,1.354,0.545,1.896,1.632l1.23,2.348"/>
<path fill="#FFFFFF" d="M284.984,273.174c0.126-1.526,0-2.21,0-2.21c8.705,0.949,13.042,3.405,16.553,10.262
	c-4.771,2.27-9.201,1.55-10.71,1.412c-1.489-0.137-7.21-3.699-7.894-5.64c0.965-0.686,1.367-1.371,1.367-1.371L284.984,273.174z"/>
<path fill="none" stroke="#000000" stroke-width="0.3239" stroke-miterlimit="10" d="M284.984,273.174c0.126-1.526,0-2.21,0-2.21
	c8.705,0.949,13.042,3.405,16.553,10.262c-4.771,2.27-9.201,1.55-10.71,1.412c-1.489-0.137-7.21-3.699-7.894-5.64
	c0.965-0.686,1.367-1.371,1.367-1.371L284.984,273.174z"/>
<path fill="#87BE3C" d="M317.876,286.478c2.454-1.645,11.702-5.487,15.943-6.59c0,0,23.301-9.837,40.148-7.555
	c0,0,13.058,1.525,16.336,0c3.282-1.523-10.381,11.501-25.988,9.202c-2.502-0.356-13.629,0.063-15.094,0.28
	c-5.889,0.856-12.479,2.441-11.451,1.925c0.992-0.51,7.085-0.264,7.085-0.264c1.353,0,10.802,0.563,15.511,2.879
	c4.509,2.19,10.633,5.905,14.581,10.707c3.948,4.806,4.913,6.045,5.998,7.011c1.087,0.965,1.213,0.809,2.442,0.965
	c1.228,0.138,3,0.807,4.086,2.455c1.089,1.665,2.86,0.822,4.772,1.242c1.896,0.423,4.212,2.333,6.932,5.348
	c2.705,3.033,7.075,3.591,8.564,3.591c-5.441,5.207-8.705,5.331-8.705,5.331c-1.367-5.889-3.543-10.427-9.652-11.796
	c3.948,2.346,6.527,4.678,7.476,7.274c0.964,2.61,0.684,4.275,1.089,6.31c0.42,2.083,2.861,4.416,3.39,4.68
	c-7.462-1.37-12.637-3.157-13.724-8.658c-1.092-5.486-3.125-6.731-3.125-6.731c1.758,3.992,1.758,6.605,2.298,8.798
	c0.545,2.21,2.597,3.853,3.545,4.415c0.947,0.542,6.389,3.14,8.703,3.279c-9.808-0.14-16.318-0.687-17.005-14.845
	c-0.541,4.138-0.541,7.974,1.091,10.585c1.616,2.612,3.807,3.837,3.807,3.837c-3.669,4.119-10.772,4.804-10.772,4.804
	c2.86-5.627,2.051-9.464,1.086-13.446c-0.932-3.994-0.402-4.396,0.42-6.463c0.809-2.052-0.542-3.018-0.42-4.538
	c0.142-1.494,0.563-2.458,0.42-3.296c-0.138-0.824-1.632-1.789-2.581-3.14c-0.947-1.383-8.375-9.139-12.249-11.532
	c-7.505-4.696-12.587-4.99-19.613-5.922c-6.265-0.825-22.102,3.977-27.606,5.999c0,0,46.273-14.191,56.842,23.844
	c0,0,0.995,7.366,0,11.688c0,0-8.795-6.357-10.318-8.129c0,0-23.146-37.274-55.319-16.493l-6.373-0.293
	c1.896-8.24,5.177-11.534,7.756-14.547c2.268-2.644,8.347-8.705,15.122-13.727c5.723-4.273,23.688-19.103,26.687-22.399
	c4.556-5.003,11.891-8.875,14.301-10.445c6.125-3.978,19.74-3.7,19.74-3.7c-7.632,5.085-12.526,8.784-14.158,11.254
	c-1.632,2.488-11.299,10.99-14.565,13.322c-3.279,2.346-8.457,6.186-10.911,8.377c-2.239,2.019-7.615,5.363-7.615,5.363
	c-2.271,0.232-18.592,9.651-18.42,9.541"/>
<path fill="none" stroke="#000000" stroke-width="0.3224" stroke-miterlimit="10" d="M317.876,286.478
	c2.454-1.645,11.702-5.487,15.943-6.59c0,0,23.301-9.837,40.148-7.555c0,0,13.058,1.525,16.336,0
	c3.282-1.523-10.381,11.501-25.988,9.202c-2.502-0.356-13.629,0.063-15.094,0.28c-5.889,0.856-12.479,2.441-11.451,1.925
	c0.992-0.51,7.085-0.264,7.085-0.264c1.353,0,10.802,0.563,15.511,2.879c4.509,2.19,10.633,5.905,14.581,10.707
	c3.948,4.806,4.913,6.045,5.998,7.011c1.087,0.965,1.213,0.809,2.442,0.965c1.228,0.138,3,0.807,4.086,2.455
	c1.089,1.665,2.86,0.822,4.772,1.242c1.896,0.423,4.212,2.333,6.932,5.348c2.705,3.033,7.075,3.591,8.564,3.591
	c-5.441,5.207-8.705,5.331-8.705,5.331c-1.367-5.889-3.543-10.427-9.652-11.796c3.948,2.346,6.527,4.678,7.476,7.274
	c0.964,2.61,0.684,4.275,1.089,6.31c0.42,2.083,2.861,4.416,3.39,4.68c-7.462-1.37-12.637-3.157-13.724-8.658
	c-1.092-5.486-3.125-6.731-3.125-6.731c1.758,3.992,1.758,6.605,2.298,8.798c0.545,2.21,2.597,3.853,3.545,4.415
	c0.947,0.542,6.389,3.14,8.703,3.279c-9.808-0.14-16.318-0.687-17.005-14.845c-0.541,4.138-0.541,7.974,1.091,10.585
	c1.616,2.612,3.807,3.837,3.807,3.837c-3.669,4.119-10.772,4.804-10.772,4.804c2.86-5.627,2.051-9.464,1.086-13.446
	c-0.932-3.994-0.402-4.396,0.42-6.463c0.809-2.052-0.542-3.018-0.42-4.538c0.142-1.494,0.563-2.458,0.42-3.296
	c-0.138-0.824-1.632-1.789-2.581-3.14c-0.947-1.383-8.375-9.139-12.249-11.532c-7.505-4.696-12.587-4.99-19.613-5.922
	c-6.265-0.825-22.102,3.977-27.606,5.999c0,0,46.273-14.191,56.842,23.844c0,0,0.995,7.366,0,11.688c0,0-8.795-6.357-10.318-8.129
	c0,0-23.146-37.274-55.319-16.493l-6.373-0.293c1.896-8.24,5.177-11.534,7.756-14.547c2.268-2.644,8.347-8.705,15.122-13.727
	c5.723-4.273,23.688-19.103,26.687-22.399c4.556-5.003,11.891-8.875,14.301-10.445c6.125-3.978,19.74-3.7,19.74-3.7
	c-7.632,5.085-12.526,8.784-14.158,11.254c-1.632,2.488-11.299,10.99-14.565,13.322c-3.279,2.346-8.457,6.186-10.911,8.377
	c-2.239,2.019-7.615,5.363-7.615,5.363c-2.271,0.232-18.592,9.651-18.42,9.541"/>
<path fill="#87BE3C" d="M275.521,303.108l-2.847,0.127c-5.579-10.445-15.79-14.501-25.597-18.402
	c-9.67-3.842-11.18-4.12-20.161-6.997c-8.702-2.811-17.563-5.643-19.602-9.063c-2.034-3.435-5.705-8.937-5.705-8.937
	c6.111,3.157,14.689,5.365,17.688,5.643c3.001,0.28,8.984,1.912,11.021,2.595c2.05,0.7,18.28,6.295,29.858,14.673
	c0,0,6.794,5.069,8.054,8.101c1.258,3.045-2.258-4.819-2.258-4.819l-4.787-5.332c-11.704-10.554-15.586-13.354-20.113-15.496
	c-14.966-7.152-14.829-11.13-17.95-18.264c10.739,1.787,18.65,6.716,21.356,8.361c2.734,1.664,3.107,2.147,5.86,3.854
	c5.315,3.313,14.364,14.971,14.364,14.971"/>
<path fill="none" stroke="#000000" stroke-width="0.3239" stroke-miterlimit="10" d="M275.521,303.108l-2.847,0.127
	c-5.579-10.445-15.79-14.501-25.597-18.402c-9.67-3.842-11.18-4.12-20.161-6.997c-8.702-2.811-17.563-5.643-19.602-9.063
	c-2.034-3.435-5.705-8.937-5.705-8.937c6.111,3.157,14.689,5.365,17.688,5.643c3.001,0.28,8.984,1.912,11.021,2.595
	c2.05,0.7,18.28,6.295,29.858,14.673c0,0,6.794,5.069,8.054,8.101c1.258,3.045-2.258-4.819-2.258-4.819l-4.787-5.332
	c-11.704-10.554-15.586-13.354-20.113-15.496c-14.966-7.152-14.829-11.13-17.95-18.264c10.739,1.787,18.65,6.716,21.356,8.361
	c2.734,1.664,3.107,2.147,5.86,3.854c5.315,3.313,14.364,14.971,14.364,14.971"/>
<path fill="#87BE3C" d="M264.704,274.123c0,0,11.342,12.061,15.726,28.985h-4.909"/>
<path fill="none" stroke="#000000" stroke-width="0.3239" stroke-miterlimit="10" d="M264.704,274.123
	c0,0,11.342,12.061,15.726,28.985h-4.909"/>
<path fill="#87BE3C" d="M253.524,293.394c0,0-7.304-2.907-14.639-2.127c-5.177,0.559-10.136,2.347-15.794,5.907
	c-6.542,4.132-12.248,12.088-10.893,26.78c0.947-0.544,9.089-8.425,10.353-10.151c3.308-4.54,5.873-8.999,9.123-11.67
	c9.946-8.209,22.597-7.43,31.986,1.349l3.543-0.125h2.597c-5.458-9.62-11.503-11.438-19.88-14.967
	c-9.124-3.839-20.562-3.575-31.597-0.137c-5.395,1.693-8.583,2.47-18.513,10.567c-6.185,5.066-8.858,10.707-10.353,11.408
	c-1.491,0.685-4.21,1.773-4.21,1.773c-3.825,1.801-7.383,4.149-9.125,12.791c-1.367,6.732-1.772,16.196,1.351,12.886
	c3.139-3.279,4.773-7.261,5.315-10.691c0.529-3.437,0.529-5.223,2.458-7.015c1.896-1.785,3.528-2.327,3.528-2.327
	c-0.407,2.327-1.356,2.75-2.039,3.836c-0.685,1.105-0.823,1.368-1.071,3.856c-0.295,2.47-2.612,9.606-4.509,11.531
	c-1.911,1.913-2.051,6.871,2.724,3.171c4.768-3.713,11.98-7.973,11.437-17.873c-0.354-6.436-1.353-7.928,2.037-13.864
	c3.141-5.487,18.931-16.757,29.408-17.707C232.216,290.084,241.448,287.116,253.524,293.394"/>
<path fill="none" stroke="#000000" stroke-width="0.3239" stroke-miterlimit="10" d="M253.524,293.394c0,0-7.304-2.907-14.639-2.127
	c-5.177,0.559-10.136,2.347-15.794,5.907c-6.542,4.132-12.248,12.088-10.893,26.78c0.947-0.544,9.089-8.425,10.353-10.151
	c3.308-4.54,5.873-8.999,9.123-11.67c9.946-8.209,22.597-7.43,31.986,1.349l3.543-0.125h2.597
	c-5.458-9.62-11.503-11.438-19.88-14.967c-9.124-3.839-20.562-3.575-31.597-0.137c-5.395,1.693-8.583,2.47-18.513,10.567
	c-6.185,5.066-8.858,10.707-10.353,11.408c-1.491,0.685-4.21,1.773-4.21,1.773c-3.825,1.801-7.383,4.149-9.125,12.791
	c-1.367,6.732-1.772,16.196,1.351,12.886c3.139-3.279,4.773-7.261,5.315-10.691c0.529-3.437,0.529-5.223,2.458-7.015
	c1.896-1.785,3.528-2.327,3.528-2.327c-0.407,2.327-1.356,2.75-2.039,3.836c-0.685,1.105-0.823,1.368-1.071,3.856
	c-0.295,2.47-2.612,9.606-4.509,11.531c-1.911,1.913-2.051,6.871,2.724,3.171c4.768-3.713,11.98-7.973,11.437-17.873
	c-0.354-6.436-1.353-7.928,2.037-13.864c3.141-5.487,18.931-16.757,29.408-17.707C232.216,290.084,241.448,287.116,253.524,293.394"
	/>
<path fill="#FFFFFF" d="M271.914,275.893c0.403,0.84,2.299,2.086,2.299,2.086c-2.982,5.498-3.59,9.324-15.916,10.348
	c2.178-8.936,3.81-13.365,6.809-14.888c2.983-1.525,5.986-0.418,5.986-0.418l0.138,0.838L271.914,275.893z"/>
<path fill="none" stroke="#000000" stroke-width="0.3239" stroke-miterlimit="10" d="M271.914,275.893
	c0.403,0.84,2.299,2.086,2.299,2.086c-2.982,5.498-3.59,9.324-15.916,10.348c2.178-8.936,3.81-13.365,6.809-14.888
	c2.983-1.525,5.986-0.418,5.986-0.418l0.138,0.838L271.914,275.893z"/>
<path fill="#FFFFFF" d="M279.389,278.661c1.649-0.28,2.797-1.492,2.797-1.492c4.075,6.571,2.505,13.708-2.268,20.034
	c-8.687-6.015-7.193-14.021-5.705-19.224c0.966,0.822,2.333,0.96,2.333,0.96L279.389,278.661z"/>
<path fill="none" stroke="#000000" stroke-width="0.3239" stroke-miterlimit="10" d="M279.389,278.661
	c1.649-0.28,2.797-1.492,2.797-1.492c4.075,6.571,2.505,13.708-2.268,20.034c-8.687-6.015-7.193-14.021-5.705-19.224
	c0.966,0.822,2.333,0.96,2.333,0.96L279.389,278.661z"/>
<rect x="267.967" y="308.875" fill="#E4B838" width="37.023" height="9.729"/>
<rect x="267.967" y="308.875" fill="none" stroke="#000000" stroke-width="0.3239" stroke-miterlimit="10" width="37.023" height="9.729"/>
<path fill="#CAB36B" d="M286.478,313.754"/>
<path fill="none" stroke="#000000" stroke-width="0.3239" stroke-miterlimit="10" d="M286.478,313.754"/>
<rect x="266.875" y="414.289" fill="#E4B838" width="38.252" height="5.549"/>
<rect x="266.875" y="414.289" fill="none" stroke="#000000" stroke-width="0.4064" stroke-miterlimit="10" width="38.252" height="5.549"/>
<path fill="#CAB36B" d="M285.997,417.071"/>
<path fill="none" stroke="#000000" stroke-width="0.4064" stroke-miterlimit="10" d="M285.997,417.071"/>
<polygon fill="#E4B838" points="261.56,143.234 305.966,143.092 313.987,146.775 305.953,148.315 310.475,152.871 303.169,151.984 
	307.833,158.574 300.669,155.419 302.674,162.258 296.521,157.701 297.142,164.169 291.98,160.999 289.867,169.239 287.224,163.533 
	284.69,167.837 282.686,162.895 276.527,168.353 276.903,161.372 271.495,163.907 270.996,157.564 266.225,160.862 266.225,156.57 
	261.065,159.476 262.697,153.634 255.283,155.419 260.055,148.814 253.152,148.441 "/>
<polygon fill="none" stroke="#000000" stroke-width="0.2999" stroke-miterlimit="10" points="261.56,143.234 305.966,143.092 
	313.987,146.775 305.953,148.315 310.475,152.871 303.169,151.984 307.833,158.574 300.669,155.419 302.674,162.258 
	296.521,157.701 297.142,164.169 291.98,160.999 289.867,169.239 287.224,163.533 284.69,167.837 282.686,162.895 276.527,168.353 
	276.903,161.372 271.495,163.907 270.996,157.564 266.225,160.862 266.225,156.57 261.065,159.476 262.697,153.634 255.283,155.419 
	260.055,148.814 253.152,148.441 "/>
<path fill="#E4B838" d="M263.441,172.795l-6.278,5.193v30.323c0,0,5.284,3.776,9.933,5.177c4.646,1.396,7.428,1.275,7.428,1.275
	s6.143,0,9.049,2.67c0,0,5.021-2.549,8.673-2.549c0,0,5.516,0.143,6.915-0.372c0,0,4.632,0.745,10.817-4.694v-33.604l-2.144,1.262
	v-2.412l-2.021,1.15v-2.282l-2.253,1.273v29.161c0,0-2.271,2.283-5.907,2.797c0,0-2.131,0.495-5.159,0.109
	c-3.017-0.374-9.063,2.176-9.063,2.176s-6.014-2.676-9.667-2.039c0,0-6.668,0.249-10.323-3.292V172.795z"/>
<path fill="none" stroke="#000000" stroke-width="0.2174" stroke-miterlimit="10" d="M257.163,177.103v31.319
	c0,0,6.916,4.567,11.814,5.577l5.173,0.765c0,0,5.643-0.251,9.422,2.67c0,0,5.531-2.797,9.308-2.549
	c3.763,0.251,10.913,0.373,17.098-5.066v-33.604l-2.018,1.262"/>
<path fill="#FFFFFF" d="M273.156,175.501c-3.494-0.437-7.957-2.504-9.666-3.248v31.864c3.264,3.433,9.528,3.264,9.528,3.264
	c6.032-0.389,10.353,2.068,10.353,2.068s6.603-3.188,12.029-1.913c0,0,5.006-0.264,8.16-3.169v-30.062c0,0-4.149,2.298-7.803,2.034
	c0,0-7.912-2.158-12.061,1.012l-5.535-1.522C278.161,175.829,274.15,175.641,273.156,175.501z"/>
<path fill="none" stroke="#000000" stroke-width="0.2174" stroke-miterlimit="10" d="M273.156,175.501
	c-3.494-0.437-7.957-2.504-9.666-3.248v31.864c3.264,3.433,9.528,3.264,9.528,3.264c6.032-0.389,10.353,2.068,10.353,2.068
	s6.603-3.188,12.029-1.913c0,0,5.006-0.264,8.16-3.169v-30.062c0,0-4.149,2.298-7.803,2.034c0,0-7.912-2.158-12.061,1.012
	l-5.535-1.522C278.161,175.829,274.15,175.641,273.156,175.501z"/>
<path fill="none" stroke="#000000" stroke-width="0.2174" stroke-miterlimit="10" d="M283.728,212.183
	c4.876-2.734,5.968-2.457,10.196-2.348c8.034,0.249,11.812-3.527,11.889-3.573v-32.329l-2.253,1.396 M283.587,214.528
	c4.895-2.75,5.982-2.143,10.21-2.346c10.027-0.466,9.792-1.946,14.065-4.429l-0.029-32.547l-2.021,1.008 M259.384,207.301v-31.737
	 M261.299,206.077v-31.806 M283.664,214.591c-4.913-2.752-6-2.067-10.209-2.332c-6.095-0.402-10.556-2.906-14.07-4.958
	 M283.524,212.259c-4.911-2.752-5.983-2.068-10.212-2.345c-4.212-0.265-8.067-1.246-12.013-3.838"/>
<path fill="#F3D8C7" d="M273.047,161.809c4.524-7.228,4.088-10.99,4.088-10.99l0.14-7.708l16.35-0.248
	c-1.645,2.92-1.38,8.998-1.38,8.998c2.018,15.605,0.635,15.34,0.635,15.34c-2.766,6.36-5.281,13.708-5.281,13.708l0.883,6.967
	c1.121,2.92-1.631,8.624-4.151,8.873c-2.517,0.264-2.391-3.419-2.391-3.419s0.373,0.636-1.012-3.404
	c-1.383-4.072-2.377-14.224-2.377-14.224c-1.133-0.373-4.149-0.496-4.149-0.496c-3.651,0-7.429-1.911-7.429-1.911
	c0.884-2.782,5.592-10.743,5.592-10.743L273.047,161.809z"/>
<path fill="none" stroke="#000000" stroke-width="0.3029" stroke-miterlimit="10" d="M273.047,161.809
	c4.524-7.228,4.088-10.99,4.088-10.99l0.14-7.708l16.35-0.248c-1.645,2.92-1.38,8.998-1.38,8.998
	c2.018,15.605,0.635,15.34,0.635,15.34c-2.766,6.36-5.281,13.708-5.281,13.708l0.883,6.967c1.121,2.92-1.631,8.624-4.151,8.873
	c-2.517,0.264-2.391-3.419-2.391-3.419s0.373,0.636-1.012-3.404c-1.383-4.072-2.377-14.224-2.377-14.224
	c-1.133-0.373-4.149-0.496-4.149-0.496c-3.651,0-7.429-1.911-7.429-1.911c0.884-2.782,5.592-10.743,5.592-10.743L273.047,161.809z"
	/>
<line fill="#D4B01D" x1="283.696" y1="217.561" x2="283.696" y2="196.748"/>
<line fill="none" stroke="#000000" stroke-width="0.2174" stroke-miterlimit="10" x1="283.696" y1="217.561" x2="283.696" y2="196.748"/>
<path fill="#FFFFFF" d="M197.369,308.365c-3.372,5.918-2.377,7.412-2.039,13.864c0.545,9.869-6.665,14.145-11.439,17.845
	c-4.755,3.728-4.615-1.23-2.719-3.16c1.914-1.925,4.228-9.06,4.492-11.53c0.278-2.472,0.42-2.736,1.087-3.839
	c0.685-1.103,1.632-1.523,2.036-3.855c0,0-1.616,0.558-3.527,2.332c-1.91,1.787-1.91,3.575-2.456,6.994
	c-0.545,3.451-2.176,7.444-5.302,10.726c-3.137,3.292-2.735-6.188-1.38-12.904c1.756-8.624,5.333-11.001,9.139-12.774
	c0,0,2.721-1.105,4.215-1.789l2.688-2.937L197.369,308.365z"/>
<path fill="none" stroke="#000000" stroke-width="0.3239" stroke-miterlimit="10" d="M197.369,308.365
	c-3.372,5.918-2.377,7.412-2.039,13.864c0.545,9.869-6.665,14.145-11.439,17.845c-4.755,3.728-4.615-1.23-2.719-3.16
	c1.914-1.925,4.228-9.06,4.492-11.53c0.278-2.472,0.42-2.736,1.087-3.839c0.685-1.103,1.632-1.523,2.036-3.855
	c0,0-1.616,0.558-3.527,2.332c-1.91,1.787-1.91,3.575-2.456,6.994c-0.545,3.451-2.176,7.444-5.302,10.726
	c-3.137,3.292-2.735-6.188-1.38-12.904c1.756-8.624,5.333-11.001,9.139-12.774c0,0,2.721-1.105,4.215-1.789l2.688-2.937
	L197.369,308.365z"/>
<path fill="#FFFFFF" d="M378.011,312.543c-0.917,1.2,0.466,0.452-0.343,2.488c-0.823,2.084-1.367,2.486-0.42,6.468
	c0.964,3.993,1.774,7.814-1.086,13.444c0,0,7.089-0.671,10.772-4.791c0,0-2.191-1.241-3.825-3.852
	c-1.632-2.612-1.632-6.452-1.085-10.571c0.683,14.146,7.209,14.686,17.017,14.845c-2.314-0.159-7.756-2.75-8.703-3.313
	c-0.964-0.541-3-2.19-3.545-4.396c-0.54-2.194-0.54-4.804-2.298-8.783c0,0,2.02,1.245,3.107,6.731
	c1.105,5.487,6.265,7.274,13.727,8.658c-0.513-0.28-2.97-2.628-3.39-4.68c-0.389-2.068-0.126-3.713-1.073-6.325
	c-0.949-2.597-3.542-4.93-7.492-7.259c6.124,1.37,8.3,5.908,9.667,11.796c0,0,3.252-0.138,8.705-5.36
	c-1.507,0-5.874-0.529-8.564-3.562c-2.72-3.029-5.036-4.942-6.948-5.36c-1.896-0.42-3.667,0.418-4.756-1.229
	C387.476,307.493,380.793,308.986,378.011,312.543z"/>
<path fill="none" stroke="#000000" stroke-width="0.3239" stroke-miterlimit="10" d="M378.011,312.543
	c-0.917,1.2,0.466,0.452-0.343,2.488c-0.823,2.084-1.367,2.486-0.42,6.468c0.964,3.993,1.774,7.814-1.086,13.444
	c0,0,7.089-0.671,10.772-4.791c0,0-2.191-1.241-3.825-3.852c-1.632-2.612-1.632-6.452-1.085-10.571
	c0.683,14.146,7.209,14.686,17.017,14.845c-2.314-0.159-7.756-2.75-8.703-3.313c-0.964-0.541-3-2.19-3.545-4.396
	c-0.54-2.194-0.54-4.804-2.298-8.783c0,0,2.02,1.245,3.107,6.731c1.105,5.487,6.265,7.274,13.727,8.658
	c-0.513-0.28-2.97-2.628-3.39-4.68c-0.389-2.068-0.126-3.713-1.073-6.325c-0.949-2.597-3.542-4.93-7.492-7.259
	c6.124,1.37,8.3,5.908,9.667,11.796c0,0,3.252-0.138,8.705-5.36c-1.507,0-5.874-0.529-8.564-3.562
	c-2.72-3.029-5.036-4.942-6.948-5.36c-1.896-0.42-3.667,0.418-4.756-1.229C387.476,307.493,380.793,308.986,378.011,312.543z"/>
<path fill="none" stroke="#000000" stroke-width="0.2174" stroke-miterlimit="10" d="M281.939,192.196c0,0,2.27-1.792,3.263-0.252"
	/>
<path fill="#732B3D" d="M141.413,76.912c0-0.622,0-1.258,0-1.975V38.673c-3.013-0.184-5.593-0.541-7.817-0.897
	c7.367-3.67,13.148-8.411,17.22-14.237v51.398c0,0.638,0,1.258,0,1.882c0,2.968,0.264,5.919,3.826,9.946h-18.108
	C141.056,82.912,141.413,80.144,141.413,76.912z"/>
<path fill="#732B3D" d="M328.847,32.053l-19.974,35.005c5.425,0.45,10.119,0.714,14.035,0.714h5.938V32.053z M328.847,78.17v-3.762
	h-31.057l28.042-47.995h11.721v41.36c3.993-0.172,7.646-1.43,11.096-3.67l-3.9,10.306h-7.195v3.67c0,3.403,0.713,5.735,3.292,8.686
	H325.49C327.792,83.888,328.847,81.482,328.847,78.17z"/>
<path fill="#732B3D" d="M521.566,64.383c-3.467,1.148-6.668,1.695-9.419,1.695c-10.556,0-17.921-7.618-17.921-18.901
	c0-12.619,9.403-21.758,22.193-21.758c7.012,0,13.135,2.78,17.488,7.801c4.164,4.834,6.48,11.004,6.48,17.643
	c0,8.763-4.258,18.167-11.719,24.883c-6.67,6-15.979,9.761-28.245,11.998l3.469-5.005c17.842-5.733,26.98-16.66,26.98-31.799
	c0-11.812-6.389-19.242-15.355-19.242c-7.539,0-12.778,5.642-12.778,13.787c0,8.597,5.595,14.952,13.322,14.952
	c2.845,0,6.201-0.978,10.289-2.597L521.566,64.383z"/>
<path fill="#732B3D" d="M677.695,77.362c5.238,2.504,10.121,3.855,14.832,3.855c10.551,0,17.387-5.923,17.387-13.973
	c0-6.981-5.859-12.002-15.353-12.002c-4.26,0-8.972,1.074-14.303,2.954l1.868-31.782h32.235v10.646
	c-3.205-2.501-7.989-3.575-14.561-3.575c-3.298,0-6.481,0.357-9.5,1.073l-0.807,14.501c3.918-0.715,6.93-1.073,8.964-1.073
	c12.534,0,21.313,8.237,21.313,19.073c0,7.441-4.435,14.237-12.17,18.092c-3.812,1.971-8.422,2.872-13.925,2.872
	c-3.641,0-7.731-0.449-12.17-1.258L677.695,77.362z"/>
<line fill="none" stroke="#000000" stroke-width="1.2741" stroke-linejoin="round" x1="144.538" y1="150.974" x2="144.538" y2="136.021"/>
<line fill="none" stroke="#000000" stroke-width="1.3513" stroke-linejoin="round" x1="712.81" y1="154.846" x2="712.81" y2="135.865"/>
</svg>
